<?xml version="1.0" encoding="UTF-8" standalone="no"?>
<svg width="8px" height="11px" viewBox="0 0 8 11" version="1.1" xmlns="http://www.w3.org/2000/svg" xmlns:xlink="http://www.w3.org/1999/xlink" xmlns:sketch="http://www.bohemiancoding.com/sketch/ns">
    <!-- Generator: Sketch 3.2.2 (9983) - http://www.bohemiancoding.com/sketch -->
    <title>address</title>
    <desc>Created with Sketch.</desc>
    <defs></defs>
    <g id="Design" stroke="none" stroke-width="1" fill="none" fill-rule="evenodd" sketch:type="MSPage">
        <g id="Artboard-6" sketch:type="MSArtboardGroup" transform="translate(-500.000000, -3522.000000)" fill="#7B7B7B">
            <g id="noun_6680_cc" sketch:type="MSLayerGroup" transform="translate(500.000000, 3522.000000)">
                <path d="M4,-8.8817842e-16 C1.79097461,-8.8817842e-16 -1.77635684e-15,1.70943153 -1.77635684e-15,3.81814375 C-1.33681415e-15,7.34163938 4,11 4,11 C4,11 8,6.97164636 8,3.81802566 C8,1.70943153 6.20902539,-8.8817842e-16 4,-8.8817842e-16 L4,-8.8817842e-16 Z M4.00012372,5.18061088 C3.08459373,5.18061088 2.34251956,4.47215632 2.34251956,3.59836814 C2.34251956,2.72457996 3.08471745,2.0161254 4.00012372,2.0161254 C4.91552999,2.0161254 5.65760416,2.72457996 5.65760416,3.59836814 C5.65760416,4.47215632 4.91552999,5.18061088 4.00012372,5.18061088 L4.00012372,5.18061088 Z" id="address" sketch:type="MSShapeGroup"></path>
            </g>
        </g>
    </g>
</svg>