<svg id="Layer_1" xmlns="http://www.w3.org/2000/svg" viewBox="0 0 103.7 102.9"><style>.st0{fill:#FFF}.st1{fill:#bbe0de}</style><path class="st0" d="M0 61.2c0-.6 0-1.4.1-2.3.5-4.1 1.8-7.8 4.6-10.9 2.4-2.7 5.5-4.3 9-5.2 5.4-1.3 10.7-.6 15.8 1.3C40.6 48.3 49 55.7 54.9 65.8c3.3 5.5 5.3 11.4 5.3 17.9 0 5-1.2 9.5-4.7 13.3-2.6 2.8-5.8 4.6-9.5 5.4-5.3 1.1-10.5.4-15.5-1.5-11-4.2-19.3-11.6-25.2-21.6C2.1 73.8.1 67.9 0 61.2"/><path class="st1" d="M40.2 31.3l.2-.2c.1 0 .3.1.4.1 2.6 1 5.2 1.4 7.9 1.4 5.9-.1 11.5-1.6 16.8-4 3.1-1.4 6.1-3.2 9.2-4.6 7.9-3.7 15.9-3.6 23.8.1.6.3.8.6.7 1.2-.2 2.3-.8 4.5-2 6.5-2.5 4.2-6.2 7-10.6 9-10.1 4.6-20.5 5-31 1.8-5.1-1.6-9.6-4.1-13.1-8.1-.8-1.1-1.5-2.2-2.3-3.2m58-12.2c-.3-.1-.5-.2-.7-.2-8.6-3.1-17.1-2.6-25.3 1.4-3.2 1.6-6.4 3.4-9.6 4.8-4.9 2.1-10.1 3.5-15.6 3.2-2.9-.2-5.5-1-7.8-2.9-.5-.4-.7-.9-.7-1.6.3-3.9 1.9-7.1 4.6-9.9 2.9-3.1 6.5-5.3 10.5-6.8 7.3-2.8 14.9-3.4 22.6-2.2 5.8.9 11.1 2.9 15.8 6.5 2.6 2 4.8 4.4 6.2 7.7M66.2 0c-1.8.2-3.6.4-5.4.7C53 2.1 46 4.9 40.4 10.6c-4.1 4.1-6.4 9-6.2 14.8.1 3.6 1.5 7 3.6 9.9 3.3 4.6 7.8 7.9 13 10 12.9 5.2 25.8 5 38.4-1.1 5.1-2.5 9.3-6 12.1-11 1.8-3.2 2.6-6.6 2.3-10.1-.4-4.3-2.3-8.2-5.2-11.4-4.3-4.8-9.6-7.7-15.6-9.6C79.5 1 76 .4 72.5.1c-.3 0-.5-.1-.8-.1h-5.5zM4.7 57.5h.1c.3.6.6 1.1 1 1.7 2.6 4.3 6.4 7.3 10.6 9.9 5.1 3.1 10.7 4.9 16.4 6.5 9.4 2.6 15.8 8.6 19.4 17.6.2.6.2 1-.3 1.4-1.6 1.6-3.5 2.6-5.7 3.3-4.6 1.3-9.1.7-13.5-.8-7-2.4-12.9-6.5-17.8-12-5-5.5-8.7-11.6-10.2-19-.6-2.8-.7-5.7 0-8.6m50.5 31.6c-.2-.3-.3-.6-.5-.8-4.5-8.6-11.4-14.1-20.7-16.8-3.5-1-7-2.1-10.4-3.5-4.6-1.8-8.8-4.4-12.1-8.1-2-2.3-3.5-4.8-3.8-7.9 0-.4.2-1 .5-1.3 1.7-1.8 3.7-2.9 6.1-3.6 4.6-1.2 9.1-.6 13.5.9 8 2.8 14.5 7.8 19.7 14.4 4.4 5.5 7.6 11.6 8.4 18.8.3 2.6.1 5.2-.7 7.9M0 61.2c.1 6.7 2.1 12.6 5.3 18.1 5.9 10 14.2 17.4 25.3 21.6 5 1.9 10.2 2.6 15.5 1.5 3.7-.8 6.9-2.5 9.5-5.4 3.4-3.8 4.7-8.4 4.7-13.3 0-6.4-2-12.4-5.3-17.9-6-10.1-14.3-17.5-25.4-21.6-5.1-1.9-10.4-2.6-15.8-1.3-3.5.8-6.5 2.5-9 5.2C1.9 51.2.6 54.9.2 59c-.2.8-.2 1.7-.2 2.2"/><path class="st0" d="M98.2 19.1c-1.4-3.3-3.6-5.7-6.2-7.8-4.7-3.6-10-5.5-15.8-6.5-7.7-1.2-15.3-.6-22.6 2.2-4 1.5-7.5 3.7-10.5 6.8-2.6 2.8-4.3 6-4.6 9.9 0 .7.2 1.2.7 1.6 2.3 1.9 4.9 2.7 7.8 2.9 5.5.4 10.6-1 15.6-3.2 3.3-1.4 6.4-3.2 9.6-4.8 8.2-4 16.6-4.6 25.3-1.4.2.1.3.2.7.3"/><path class="st0" d="M40.2 31.3c.8 1.1 1.5 2.2 2.3 3.1 3.5 4 8 6.6 13.1 8.1 10.6 3.2 20.9 2.8 31-1.8 4.4-2 8.1-4.9 10.6-9 1.2-2 1.9-4.1 2-6.5 0-.7-.2-1-.7-1.2-7.9-3.7-15.9-3.8-23.8-.1-3.1 1.4-6 3.2-9.2 4.6-5.3 2.4-10.9 4-16.8 4-2.7 0-5.4-.4-7.9-1.4-.1 0-.3-.1-.4-.1-.1.1-.1.2-.2.3M55.2 89.1c.9-2.7 1-5.3.7-7.9-.8-7.1-4-13.2-8.4-18.8-5.3-6.5-11.7-11.6-19.7-14.4-4.4-1.5-8.9-2.1-13.5-.9-2.4.6-4.4 1.8-6.1 3.6-.3.3-.5.9-.5 1.3.3 3.1 1.7 5.6 3.8 7.9 3.3 3.7 7.5 6.3 12.1 8.1 3.4 1.4 6.9 2.4 10.4 3.5 9.3 2.7 16.2 8.3 20.7 16.8.1.2.3.5.5.8"/><path class="st0" d="M4.7 57.5c-.6 2.9-.5 5.8.1 8.6 1.5 7.3 5.2 13.5 10.2 19 5 5.4 10.8 9.6 17.8 12 4.4 1.5 8.9 2.1 13.5.8 2.2-.6 4.1-1.7 5.7-3.3.5-.4.5-.8.3-1.4-3.6-8.9-10-14.9-19.4-17.6-5.7-1.6-11.3-3.5-16.4-6.5-4.2-2.5-8-5.6-10.6-9.9-.3-.6-.6-1.1-1-1.7-.1 0-.2.1-.2 0"/></svg>