<svg id="Layer_1" xmlns="http://www.w3.org/2000/svg" viewBox="0 0 99.6 85"><style>.st0{fill:#bbe0de}</style><path class="st0" d="M20.2 70.2c.9-.1 1.9-.1 2.7-.4 3.9-1.9 7.7-3.9 11.5-6 1.8-1 2.3-3.2 1.4-5-1-1.8-3.1-2.6-4.9-1.6-3.9 2-7.8 4-11.6 6.1-1.4.8-2 2.1-1.8 3.7.2 1.5 1.2 2.5 2.7 3.2m2.6 3.9c-.6 2-.2 3.3.9 4.4 1.2 1.1 2.9 1.3 4.3.6 3.8-1.9 7.5-3.9 11.3-5.9 1.9-1 2.5-3.2 1.5-5.1-1-1.8-3.2-2.5-5.1-1.5-3.7 1.9-7.5 3.8-11.2 5.9-.8.4-1.4 1.3-1.7 1.6M7.3 46.3l.2.2c-.5 1.5 0 3 1.2 4 1.3 1.1 2.8 1.3 4.3.5 3.7-1.9 7.4-3.8 11.1-5.8 2-1 2.6-3.3 1.6-5.1-1-1.8-3.2-2.5-5.1-1.6-3.7 1.9-7.5 3.9-11.2 5.9-.8.4-1.4 1.3-2.1 1.9m23.7 6c.4-1.6 0-2.9-1.2-3.9-1.3-1.1-2.7-1.2-4.2-.5-3.7 1.9-7.5 3.9-11.2 5.8-1.9 1-2.6 3.2-1.6 5 1 1.8 3.3 2.6 5.2 1.6 3.7-1.9 7.4-3.9 11.1-5.8 1-.5 1.6-1.2 1.9-2.2m42.5 2.8c7.5-3.9 14.9-7.8 22.2-11.6-3.9-7.3-7.9-14.7-11.9-22.1-.2.1-.5.3-.9.4-4 2.1-7.9 4.1-11.9 6.2-2.4 1.3-4.4 1-6.4-.9-1.2-1.2-2.5-2.3-3.7-3.5-2.8-2.7-6.1-3.1-9.5-1.3-5.5 2.9-11.1 5.8-16.6 8.7-.2.1-.4.2-.8.5 1 .8 1.8 1.7 2.8 2.4 2.5 1.8 5.1 2.1 7.9.5 3.9-2.1 7.8-4.1 11.7-6.1 1.6-.8 2.1-.7 3 .9C64 37.5 68.5 45.9 73 54.3c.2.3.4.6.5.8m-7.9 7.7c.9 1.7 1.7 3.3 2.6 4.8.8 1.4 2.3 2.1 3.8 1.9 1.5-.2 2.8-1.3 3.1-2.8.3-1.1 0-2.1-.5-3.1-5.7-10.5-11.3-21-17-31.5-.1-.2-.3-.5-.6-1-.3.2-.5.5-.8.7-3.5 1.8-6.9 3.6-10.4 5.5-2.5 1.3-5.2 1.5-7.9.5-2.9-1.1-5.1-3.1-7-5.5-1-1.4-.9-2.2.6-3l12-6.3c.3-.2.6-.3 1-.6-2.3-.7-4.3-1.4-6.4-1.9-2.4-.7-4.1-2.1-5.2-4.2-2.1-3.9-4.2-7.9-6.4-11.8-.2-.3-.3-.6-.4-.6-7.5 3.9-14.9 7.8-22.3 11.7 3.9 7.2 7.9 14.6 11.9 22 1.1-.6 2.3-1.3 3.5-1.9 2.4-1.1 4.8-.9 6.9.5 2.1 1.5 3.1 3.6 3 6.1-.1.7-.2 1.4-.4 2.1 2.1.5 3.6 1.7 4.7 3.5 1 1.9 1 3.8.4 5.8 4.7 1.9 5.8 4 5.2 9.4.7.3 1.4.5 2 .9 4.6 2.7 4.5 9.2-.1 11.8-1.1.6-2.3 1.1-3.7 1.8.5.9 1 1.6 1.4 2.3 1.1 1.9 3.3 2.6 5.2 1.7 1.9-1 2.5-3.2 1.5-5.1-.4-.8-.9-1.5-1.3-2.1 1-.6 1.8-1.1 2.8-1.6.6 1.1 1.2 2.3 1.8 3.3 1.1 2 3.3 2.8 5.2 1.8 2-1 2.6-3.2 1.5-5.3-.6-1.1-1.2-2.2-1.9-3.3 1-.5 1.9-.9 2.9-1.4.8 1.5 1.6 3.1 2.5 4.6 1.5 2.6 5.1 2.7 6.6.2.7-1.2.7-2.5 0-3.8-.8-1.5-1.7-3.1-2.5-4.6.9-.5 1.7-1 2.7-1.5M19.8 73.1c-3.7-1.1-6.4-4.4-5-9.4-4.5-1.3-6.3-5.3-5-9.3-.6-.3-1.2-.5-1.8-.8-2.3-1.3-3.6-3.3-3.6-5.9 0-2.6 1.2-4.7 3.5-6 1.4-.8 2.9-1.5 4.3-2.3.3-.1.5-.3 1-.6-.2-.3-.5-.6-.6-.9-4-7.3-7.9-14.6-11.9-22-.9-1.6-.7-2.2.9-3C9.6 8.7 17.5 4.6 25.5.4c1.6-.8 2.2-.6 3 .9 2.4 4.5 4.8 8.9 7.2 13.4.8 1.4 1.8 2.4 3.4 2.8 2.9.8 5.7 1.8 8.6 2.6.5.1 1 0 1.5-.1.8-.3 1.6-.8 2.4-1.1 4.1-1.4 7.8-.7 11.1 2.1 1.4 1.2 2.8 2.6 4.1 3.9 1.1 1 1.6 1.1 2.9.4 4.5-2.4 9-4.7 13.6-7.1 1.6-.8 2.2-.7 3 .9C90.5 27 94.8 35 99.1 42.9c.8 1.5.7 2.1-.9 2.9-7.4 3.9-14.8 7.7-22.1 11.6-.3.2-.7.3-1.1.4.9 1.7 1.8 3.2 2.6 4.7 1.2 2.4 1.1 4.7-.3 7-1.6 2.5-4.6 3.6-7.5 2.8-.3-.1-.5-.2-.9-.3-.7 2.3-1.9 4-4 5-2.1.9-4.2.7-6.3-.3-.8 2-2.1 3.5-4.1 4.2-2 .7-4 .6-5.9-.5-1.4 3.2-3.7 4.9-7.3 4.6-3.6-.3-5.3-2.9-6.7-5.9-1.8 1-3.5 1.9-5.2 2.7-4.6 2.3-9.9-.9-10-5.9 0-.9.2-1.8.4-2.8"/></svg>