<?xml version="1.0" encoding="UTF-8" standalone="no"?>
<svg width="13px" height="10px" viewBox="0 0 13 10" version="1.1" xmlns="http://www.w3.org/2000/svg" xmlns:xlink="http://www.w3.org/1999/xlink" xmlns:sketch="http://www.bohemiancoding.com/sketch/ns">
    <!-- Generator: Sketch 3.2.2 (9983) - http://www.bohemiancoding.com/sketch -->
    <title>brochure</title>
    <desc>Created with Sketch.</desc>
    <defs></defs>
    <g id="Design" stroke="none" stroke-width="1" fill="none" fill-rule="evenodd" sketch:type="MSPage">
        <g id="Artboard-6" sketch:type="MSArtboardGroup" transform="translate(-953.000000, -3548.000000)" fill="#7B7B7B">
            <g id="noun_17859_cc" sketch:type="MSLayerGroup" transform="translate(953.000000, 3548.000000)">
                <path d="M9.36870982,1.42845735 L8.31564509,-2.66453526e-15 L4.68435491,1.42845735 L3.63129018,-2.66453526e-15 L-3.55271368e-15,1.42845735 L-3.55271368e-15,10 L3.63129018,8.57138294 L4.68435491,10 L8.31564509,8.57138294 L9.36870982,10 L13,8.57138294 L13,-2.09712694e-15 L9.36870982,1.42845735 L9.36870982,1.42845735 Z M2.69448204,7.91912223 L0.936965244,8.61019277 L0.936965244,2.0811972 L2.69448204,1.39012665 L2.69448204,7.91912223 L2.69448204,7.91912223 Z M7.37867985,7.91912223 L5.62116305,8.61003306 L5.62116305,2.08103748 L7.37867985,1.38996694 L7.37867985,7.91912223 L7.37867985,7.91912223 Z M12.0630348,7.91912223 L10.305518,8.61003306 L10.305518,2.08103748 L12.0630348,1.38996694 L12.0630348,7.91912223 L12.0630348,7.91912223 Z" id="brochure" sketch:type="MSShapeGroup"></path>
            </g>
        </g>
    </g>
</svg>