<svg id="Layer_1" xmlns="http://www.w3.org/2000/svg" viewBox="0 0 38.1 104.1"><style>.st0{fill:#bbe0de}</style><path class="st0" d="M4.1 75H34v-6.8H4.1V75zm25.4 4.1h-21c.4 7 .7 14 1.1 20.9h18.8c.4-6.9.8-13.9 1.1-20.9m-3-35.3V27h-2.6c-1.3-.1-2.1-.8-2.1-2s.7-1.9 2-2c.9-.1 1.7-.1 2.6-.1v-5.6H26c-1 .2-1.9.4-2.9.6-1.3.3-2.4-.2-2.6-1.3-.3-1.2.3-2.2 1.8-2.6 1.3-.3 2.7-.6 4.2-1-.1-1-.2-2-.4-3.2-.4.3-.6.5-.8.6-1.1.9-2.2 1-3 .1-.8-.9-.7-2.1.4-3.1.3-.3.8-.5 1.2-.8-2.7-2.3-6.2-2.5-8.7-.8.7.5 1.5 1 2.1 1.6 1.1.8 1.3 1.9.7 2.9-.7 1-1.8 1.1-3 .4-.9-.6-1.7-1.2-2.6-1.8-.8 1.3-1.1 3.1-.9 5.7.8.1 1.7.3 2.6.4 1.4.2 2.2 1 2 2.3-.1 1.2-1 1.8-2.5 1.7-.7-.1-1.4-.2-2.2-.2v8.5h4.8c1.4 0 2.2 1.1 2 2.3-.2 1-.9 1.6-2.1 1.6h-4.8v16.6c1.6.2 3.6-.3 3.7 2 .1 2.4-2.1 2-3.6 2.1v4.4c1.6.1 3.5-.3 3.6 1.9.1 2.4-2 2-3.6 2.1v3.8h14.8v-5.2c-.1-.1-.2-.1-.3-.1h-3.3c-1.5 0-2.3-.7-2.3-2 0-1.2.8-2 2.3-2h3.7v-7h-3.6c-1.5 0-2.3-.8-2.3-2s.8-2 2.3-2c1.3-.1 2.5 0 3.8 0m.3-40.2c.4-.3.7-.6 1.1-.9.9-.6 1.9-.5 2.6.2.7.7.8 2 0 2.6-1.2 1-1.1 1.9-.6 3.2.4 1 .5 2.2.7 3.4l4.2-.9c1.3-.3 2.3.3 2.6 1.4.3 1.2-.3 2.2-1.7 2.5-1.5.4-3 .7-4.5 1.1-.3.1-.7.4-.7.6-.1 2 0 4 0 6.1h2.3c1.3 0 2.2.8 2.2 2 0 1.1-.8 1.9-2.1 2h-2.3v16.9h4.7c1.2 0 2 .6 2.1 1.7.2 1.2-.6 2.2-1.9 2.3-1.6.1-3.2 0-5 0v6.9c1.5 0 3 .1 3 2.2 0 1.2-.8 1.7-3 1.9v5.3H36c1.2 0 2 .8 2 1.9v11.1c0 1.1-.9 1.9-2 1.9h-2.5l-.3 5.1c-.3 5.9-.6 11.9-.9 17.8-.1 1.5-.8 2.2-2.3 2.2H8.1c-1.6 0-2.3-.7-2.4-2.3-.3-7.2-.7-14.4-1.1-21.7 0-.3-.1-.6-.1-1H2.1C.8 79 0 78.3 0 77V66.3c0-1.3.8-2.1 2.2-2.1h5.3v-3.6c-.9-.4-1.8-.7-2.6-1.1-.3-.2-.4-.8-.4-1.3 0-1.3.9-1.8 3-1.9v-4.5H2.9c-1.9 0-2.9-.6-2.9-2 0-1.3.9-2 2.8-2.1h4.6V31.1H2c-.9 0-1.7-.4-1.9-1.3-.1-.6 0-1.5.4-2 .3-.4 1.1-.7 1.7-.7 1.7-.1 3.4 0 5.1 0V18c-1-.2-2-.3-3.1-.5-1.5-.2-2.3-1.1-2.2-2.3.1-1.2 1.1-1.8 2.5-1.7.9.1 1.8.2 2.8.3 0-2.6.2-5.1 1.6-7.5-1-.8-2.2-1.6-3.4-2.5-1.1-.9-1.4-1.9-.7-2.9s1.9-1.1 3-.3 2.2 1.6 3.4 2.3c.2.1.8.1 1.1 0 4.8-3.1 9.6-2.9 14.2.6 0 0 .1 0 .3.1"/></svg>