<svg id="Layer_1" data-name="Layer 1" xmlns="http://www.w3.org/2000/svg" viewBox="0 0 89.58 229.75"><defs><style>.cls-1{fill:none;stroke:#bce0de;stroke-linecap:round;stroke-linejoin:round;stroke-width:8px}</style></defs><title>Untitled-3</title><path class="cls-1" d="M44.84 225.75h23.47a4.78 4.78 0 0 0 5-4.71l2.64-49h6.2s3.49-.19 3.47-5.19v-23.36s-.1-3.36-4.37-3.41-11.69 0-11.69 0l.11-111.52S69.41 6.34 44.84 4M44.74 225.75H21.27a4.78 4.78 0 0 1-5-4.71l-2.64-49H7.47S4 171.83 4 166.83v-23.34s.1-3.36 4.37-3.41 11.69 0 11.69 0l-.14-111.52S20.18 6.34 44.74 4M20.06 140.04h50.22M13.96 172.16l61.95-.14M14.28 4.39l17.8 12.59M56.52 20.87L69.29 8.86M54.42 36.55l29.79-6.94M58.95 56.13l19.98-.3M8.81 35.23l21.14 2.89M4.41 65.16l32.05.37M48.03 100.67h36.32M54.42 124.26l21.62.2M4.05 109.25l25.9-.16M13.57 127.21l16.38.03"/></svg>