<svg xmlns="http://www.w3.org/2000/svg" viewBox="0 0 89.6 229.8"><style>.st0{fill:none;stroke:#bce0de;stroke-width:8;stroke-linecap:round;stroke-linejoin:round}</style><g id="Layer_1"><title>Untitled-3</title><path class="st0" d="M14.3 4.4L32.1 17M56.5 20.9l12.8-12M54.4 36.5l29.8-6.9M59 56.1l19.9-.3M8.8 35.2L30 38.1M4.4 65.2l32.1.3M48 100.7h36.3M54.4 124.3l21.6.2M4.1 109.2l25.9-.1M13.6 127.2H30M81.2 140.1c-4.3-.1-11.7 0-11.7 0l.1-111.5S69.3 6.4 44.8 4M8.4 140.1c4.3-.1 11.7 0 11.7 0l-.2-111.5S20.2 6.4 44.7 4"/></g><g id="Layer_2"><path class="st0" d="M20.1 140h50.2M14 172.2l61.9-.2M44.8 225.7h23.5c2.6.1 4.9-1.9 5-4.6v-.2l2.6-49h6.2s3.5-.2 3.5-5.2v-23.4s-.1-3.4-4.4-3.4M44.7 225.7H21.3c-2.6.1-4.9-1.9-5-4.6v-.2l-2.6-49H7.5s-3.5-.2-3.5-5.2v-23.3s.1-3.4 4.4-3.4"/></g></svg>