<svg id="Layer_1" xmlns="http://www.w3.org/2000/svg" viewBox="0 0 91.4 80.8"><style>.st0{fill:#FFF}.st1{fill:#bbe0de}</style><path class="st0" d="M60.6 14.4c-2.7-.8-5.3-.8-7.8-.2-3.1.7-5.9 2.1-8.1 4.5-.7.8-.7 1.7 0 2.3.7.6 1.5.5 2.2-.3 3.1-3.1 6.9-4.2 11.3-3.7 1.4.2 2.6.7 3.5 1.8.4.5.5 1 .1 1.6C56.1 29 51.1 38 47.3 47.6c-.1.4-.2.9-.1 1.2 1.2 3.5 2.4 7 3.7 10.5.3.9.6 1.8.9 2.6 3.1-13.4 8.8-25.8 15.5-37.9.6.8 1.1 1.4 1.4 2.1 1.3 2.5 1.5 5.2 1.1 7.9-.2 1.6-.7 3.2-2.1 4.3-.8.7-1 1.5-.4 2.3.6.7 1.5.8 2.2.1.8-.8 1.6-1.7 2.1-2.7 1.3-2.5 1.5-5.3 1.1-8.1-.2-1.5-.6-3-1-4.4.1.1.3.2.4.3 3.4 2.7 5.2 6.2 5.3 10.5.1 1.2.6 1.9 1.5 1.9 1 0 1.5-.7 1.5-2-.1-6.8-4.7-13.1-11.3-15.4-.3-.1-.6-.2-1.1-.4 1.6-.5 2.9-.6 4.3-.3 4.6.8 8.1 4.8 8 9 0 .9.7 1.5 1.5 1.5s1.5-.7 1.5-1.5c0-.4 0-.8-.1-1.2-.9-6.5-6.9-11.3-13.4-10.8-.7 0-1.4.2-2.2.3.9-3.6.3-6.9-2-9.8-.8-1-1.9-1.9-3-2.6-.7-.5-1.6-.1-2 .6-.4.7-.2 1.5.5 2 .1.1.3.2.5.3 2.9 1.8 4.2 6.1 2.8 9.2l-.3-.9c-1.8-7-8.3-11.7-15.2-11.6-1 0-1.7.6-1.7 1.5s.7 1.5 1.6 1.5c.6 0 1.3.1 1.9.2 4.3.6 7.5 2.8 9.9 6.6M41.1 65.9h-6.2c-6.5.2-13 .4-19.5 1.4-3.4.5-6.7 1.3-9.7 2.9C2.3 72 .2 74.8 0 78.8c-.1 1.6.4 2.1 2 2.1h87.5c1.4 0 1.9-.6 1.9-2-.1-3.9-2-6.6-5.3-8.5-3.4-1.9-7.1-2.7-10.9-3.1-5.7-.6-11.4-.9-17.1-1.3-2.5-.2-5-.2-7.5-.3-.4-1.3-.7-2.6-1.1-4-2.9-10.2-6.9-19.9-13-28.6C32.3 27 27.2 21.7 20.8 18c-.1-.1-.3-.2-.4-.3.6-1.2 1.6-1.9 2.7-2.5 2.5-1.2 5.1-1.5 7.9-1.1 1.7.2 3.2.7 4.4 2.1.7.8 1.6 1 2.3.4.7-.6.7-1.5.1-2.3-.8-1-1.8-1.7-3-2.3-2.5-1.1-5.2-1.3-7.8-.9-1.5.2-2.9.6-4.4 1 .1-.2.3-.4.5-.7 2.7-3.2 6.2-4.9 10.4-5.1.5 0 1-.2 1.4-.5.5-.4.6-1 .3-1.6C34.6 3.3 34 3 33.3 3c-6.9 0-13.4 4.7-15.6 11.4-.1.3-.2.6-.4 1-.6-1.9-.6-3.6-.1-5.3 1.2-4 4.7-6.9 8.4-7.1 1.1 0 1.8-.6 1.8-1.6 0-.9-.7-1.5-1.9-1.5-5.8.1-11.3 5.6-11.6 11.5-.1 1.4.1 2.8.1 4.1-.4-.1-.9-.2-1.4-.2C8.1 15 2.3 18.1.2 22.1c-.4.7-.2 1.5.5 2 .6.5 1.4.4 1.9-.2.3-.3.5-.6.7-.9 1.5-1.8 3.3-3.4 5.6-4.2 1.6-.6 3.2-.6 4.9 0l-.1.1c-.1 0-.2.1-.4.1C7 21.3 3.1 25.6 1.8 32.2c-.2.8-.2 1.7-.2 2.5 0 1.1.6 1.8 1.5 1.8s1.5-.7 1.6-1.8c.1-2.7.8-5.1 2.3-7.3 1.1-1.7 2.6-3.1 4.5-4.2-.8 2.4-.8 4.7-.4 7 .6 3.4 2 6.4 4.6 8.8.8.7 1.7.7 2.3.1.6-.7.5-1.6-.2-2.3-3.1-3.1-4.2-6.9-3.8-11.2.1-1.3.6-2.6 1.7-3.5.5-.4.9-.5 1.6 0 4.8 3.8 8.5 8.5 11.6 13.7 4.9 8.1 8.3 16.8 11.1 25.8.3 1.3.7 2.7 1.1 4.3"/><path class="st1" d="M36.2 38c-.3.2-.4.3-.5.4-1.3 1-1.3 1-.6 2.4.6 1.3 1.3 2.6 1.9 3.9.8-.4 1.6-.7 2.4-1.1-1.1-1.8-2.1-3.7-3.2-5.6m1.9 9.6c.8 1.9 1.5 3.8 2.2 5.7l2.7-1.2c-.8-1.9-1.6-3.7-2.4-5.6-.3.1-.5.2-.7.3-.5.2-1.1.4-1.8.8m-3.6-12.2c-3.2-4.7-6.9-8.9-11.5-12.3 3.9 4 7.1 8.6 9.9 13.5.5-.4 1-.7 1.6-1.2m6.9 20.8l2.1 6.9c1-.4 1.9-.9 2.8-1.3-.8-2.3-1.5-4.6-2.2-6.9-.8.4-1.6.7-2.3 1.1-.1 0-.2.1-.4.2m4.3 15.7c-1 .2-2 .4-2.9.6l-.9-3.9c-8.7.4-17.3.4-25.9 1.6.9 1 1 1.8.4 2.4-.5.6-1.3.7-1.9.3-.7-.5-.9-1.2-.4-2.4-2.5.5-4.8 1.1-7 2.4-1 .6-1.9 1.4-2.7 2.2-.7.7-1 1.6-1.2 2.6H10c-1-1-1.1-1.8-.4-2.6.6-.6 1.6-.6 2.2 0 .7.7.6 1.6-.4 2.5h7.9c-1-.8-1.2-1.7-.6-2.5.6-.7 1.6-.7 2.2-.1.7.7.6 1.6-.4 2.5h7.9c-1-.8-1.2-1.6-.6-2.4.5-.7 1.5-.8 2.1-.3.3.3.6.9.6 1.4 0 .5-.5.9-.7 1.3h7.8c-1-.8-1.2-1.6-.6-2.4.5-.7 1.5-.8 2.1-.3.3.3.6.9.6 1.4 0 .5-.5.9-.7 1.3h7.8c-1-.8-1.2-1.6-.6-2.4.5-.7 1.6-.9 2.1-.2.3.3.6.9.5 1.4 0 .4-.5.8-.7 1.2h7.8c-1-.8-1.2-1.7-.6-2.5.5-.6 1.5-.8 2.1-.2.3.3.6.9.5 1.4 0 .4-.5.9-.7 1.2H65c-1-.8-1.2-1.7-.6-2.5.5-.6 1.5-.8 2.1-.2.3.3.6.9.5 1.4 0 .4-.5.9-.7 1.2h7.8c-1-.8-1.2-1.7-.6-2.5.6-.7 1.6-.8 2.2-.1.3.3.5.7.5 1.1-.1.6-.4 1.1-.7 1.6h12.9c-.5-1-.9-1.9-1.4-2.6-1-1.4-2.4-2.2-4-2.8-4-1.6-8.2-2.1-12.4-2.4-5.2-.1-10.4-.4-15.6-.6-1.2-.1-2.4 0-3.6 0l.3 1.8c-1 .2-2 .4-2.9.6l-1.5-6.6c-1 .5-1.9.9-2.9 1.3m-3.3-.2c-.5-1.6-.8-2.9-1.2-4.2-2.8-9-6.2-17.7-11.1-25.8-3.1-5.2-6.8-9.9-11.6-13.7-.6-.5-1-.4-1.6 0-1.1.9-1.6 2.1-1.7 3.5-.5 4.3.6 8.1 3.8 11.2.7.7.8 1.6.2 2.3-.6.7-1.5.6-2.3-.1-2.6-2.4-3.9-5.4-4.6-8.8-.4-2.3-.4-4.6.4-7-1.9 1.1-3.4 2.5-4.5 4.2-1.5 2.2-2.2 4.7-2.3 7.3 0 1.1-.6 1.8-1.6 1.8-.9 0-1.5-.7-1.5-1.8 0-.8.1-1.7.2-2.5 1.3-6.6 5.2-11 11.5-13.2.1 0 .2-.1.4-.1l.1-.1c-1.7-.6-3.3-.6-4.9 0-2.3.8-4 2.4-5.6 4.2-.2.3-.5.6-.7.9-.6.6-1.3.6-1.9.2-.6-.5-.8-1.3-.5-2 2.1-4 7.9-7.2 12.4-6.7.5 0 1 .2 1.4.2 0-1.4-.2-2.7-.1-4.1.4-6 5.9-11.4 11.6-11.5 1.2 0 1.9.5 1.9 1.5 0 .9-.7 1.5-1.8 1.6-3.8.2-7.3 3.1-8.4 7.1-.5 1.7-.5 3.4.1 5.3.2-.4.3-.7.4-1C19.9 7.7 26.4 3 33.3 3c.7 0 1.3.2 1.6.9.3.6.2 1.2-.3 1.6-.4.3-.9.5-1.4.5-4.2.2-7.7 1.9-10.4 5.1-.2.2-.4.5-.5.7 1.5-.3 2.9-.8 4.4-1 2.7-.3 5.3-.1 7.8.9 1.2.5 2.2 1.2 3 2.3.6.8.6 1.7-.1 2.3-.7.6-1.6.4-2.3-.4-1.1-1.4-2.7-1.8-4.4-2.1-2.7-.4-5.4-.1-7.9 1.1-1.1.6-2.1 1.3-2.7 2.5.2.1.3.2.4.3 6.5 3.8 11.5 9 15.7 15.1 6.1 8.8 10 18.5 13 28.6.4 1.3.7 2.6 1.1 4l7.5.3c5.7.4 11.4.7 17.1 1.3 3.8.4 7.5 1.2 10.9 3.1 3.3 1.8 5.2 4.6 5.3 8.5 0 1.4-.5 2-1.9 2H1.7c-1.6 0-2.1-.5-2-2.1.2-4 2.2-6.8 5.7-8.6 3-1.6 6.4-2.4 9.7-2.9 6.5-1 13-1.2 19.5-1.4 2.3.2 4.3.3 6.5.3"/><path class="st1" d="M64.3 23c0-.1-.1-.1-.1-.2-.2.1-.5.2-.6.3-.2.3-.4.6-.6 1-4.8 7.5-9 15.3-12.4 23.5-.1.2-.3.5-.2.7.3 1 .8 2 1.2 3.1 3.3-10 7.7-19.3 12.7-28.4m-3.7-8.6c-2.4-3.8-5.6-6-9.8-6.6-.6-.1-1.3-.1-1.9-.2-1 0-1.6-.7-1.6-1.5 0-.9.7-1.5 1.7-1.5 6.8-.1 13.3 4.6 15.6 11.4l.3.9c1.3-3.1 0-7.4-2.8-9.2-.1-.1-.3-.2-.5-.3-.7-.5-.9-1.3-.5-2s1.3-1.1 2-.6c1.1.8 2.2 1.6 3 2.6 2.3 2.9 2.9 6.1 2 9.8.7-.1 1.5-.2 2.2-.3 6.5-.4 12.5 4.4 13.4 10.8.1.4.1.8.1 1.2 0 .9-.7 1.5-1.5 1.5s-1.5-.6-1.5-1.5c0-4.1-3.5-8.1-8-9-1.4-.3-2.8-.2-4.3.3.5.2.8.3 1.1.4 6.6 2.3 11.2 8.6 11.3 15.4 0 1.2-.5 2-1.5 2-.9 0-1.5-.7-1.5-1.9-.2-4.3-2-7.8-5.3-10.5-.2-.1-.3-.2-.4-.3.3 1.5.8 2.9 1 4.4.3 2.8.2 5.6-1.1 8.1-.5 1-1.3 1.9-2.1 2.7-.7.7-1.7.6-2.2-.1-.6-.7-.4-1.6.4-2.3 1.4-1.1 1.8-2.7 2.1-4.3.4-2.7.2-5.4-1.1-7.9-.4-.7-.9-1.3-1.4-2.1-6.7 12.1-12.4 24.5-15.5 37.9-.3-.9-.6-1.8-.9-2.6-1.2-3.5-2.5-7-3.7-10.5-.1-.4-.1-.9.1-1.2 3.3-9.4 8.3-18.4 14-27 .4-.7.3-1.1-.1-1.6-.9-1.2-2.1-1.7-3.5-1.8-4.3-.5-8.1.6-11.3 3.7-.7.7-1.6.8-2.2.3-.7-.6-.7-1.5 0-2.3 2.2-2.4 5-3.8 8.1-4.5 2.5-.6 5.1-.6 7.8.2"/><path class="st0" d="M43.1 52l-2.7 1.2c-.8-1.9-1.5-3.8-2.2-5.7.7-.3 1.3-.6 1.9-.9.2-.1.4-.2.7-.3"/><path class="st1" d="M70.1 70.1c.8 0 1.5.7 1.5 1.5s-.7 1.6-1.5 1.5c-.8 0-1.5-.7-1.5-1.5s.7-1.5 1.5-1.5M60.9 73.2c-.8 0-1.5-.8-1.5-1.6s.7-1.5 1.6-1.4c.8 0 1.5.8 1.5 1.6-.1.7-.8 1.4-1.6 1.4M35 71.7c0 .8-.7 1.5-1.6 1.5-.8 0-1.5-.7-1.5-1.5 0-.9.7-1.5 1.6-1.5.9-.1 1.5.6 1.5 1.5M24.4 73.2c-.8 0-1.5-.7-1.5-1.5s.7-1.6 1.5-1.6 1.5.7 1.5 1.6c0 .8-.7 1.5-1.5 1.5"/></svg>