<svg id="Layer_1" xmlns="http://www.w3.org/2000/svg" viewBox="0 0 100.2 93.3"><style>.st0{fill:#FFF}.st1{fill:#bbe0de}.st2{fill:none}</style><path class="st0" d="M59.7 55c1.3.9 2.5 1.8 3.8 2.6.5.3.7.7.6 1.3-.8 4.5-1.7 8.9-2.4 13.4-.9 5.7-.1 11.2 3.3 16.1 3.3 4.9 8.3 6.2 13.6 3.5 5.3-2.6 8.7-6.9 10.7-12.4 3.4-9.5 6.7-19.1 10-28.7 1.3-3.8 1.2-7.6-.2-11.4-3.7-10.3-15.8-14.3-24.9-8.2-.5.3-.8.3-1.3 0-4.7-3.3-9.5-6.5-14.2-9.8-.5-.3-.6-.6-.5-1.2.9-4.2.4-8.2-1.7-11.9-5-9-17.3-11.3-25.4-4.6C23.3 10.4 15.5 17 7.7 23.6c-4 3.5-6.6 7.9-7.5 13.2-.5 2.6-.3 5.2 1 7.6 1.6 3.1 4.4 4.6 7.7 5.2 5.8 1.1 11.1-.2 16.1-3.2 3.7-2.2 7.4-4.5 11.2-6.7.3-.2.8-.3 1-.1 1.4.9 2.7 1.8 4.1 2.8-1.2 2.6-1.7 5.3-.8 8.2.9 2.8 2.6 5 5.1 6.5 4.4 2.5 9.9 2.5 14.1-2.1"/><path class="st1" d="M44.4 49c.9 4.2 4.5 6.5 8.7 5.5 4.2-.9 6.4-4.5 5.5-8.7-.9-4.2-4.5-6.5-8.7-5.5-4.2.9-6.5 4.4-5.5 8.7M62 51.6c1.8 1.2 3.6 2.5 5.5 3.7.9.6 1.2 1.4 1 2.4-.6 3.6-1.3 7.2-1.9 10.7-.6 3.2-1.3 6.4-1.1 9.7.2 3 .9 5.8 2.8 8.2 2 2.6 4.7 3.5 7.8 2.5 1.3-.5 2.6-1.2 3.7-2.1 2.7-2.1 4.4-5 5.6-8.2 3.4-9.7 6.8-19.5 10.2-29.2 1.1-3.1 1-6.2-.3-9.2-2.8-6.8-13.2-10.4-19.9-4.4-1.2 1.1-1.9 1.1-3.2.2C66.5 32 60.7 28 55 24.1c-1.4-1-1.6-1.6-1.1-3.3 1.1-3 1.1-5.9-.2-8.8-2.2-4.8-5.7-7.8-11.2-8-3.6-.2-6.6 1.3-9.3 3.6-6.2 5.1-12.4 10.3-18.6 15.6-1.8 1.5-3.6 3-5.3 4.6C6.8 30.2 5 33 4.2 36.4c-.4 1.8-.4 3.7.3 5.4 1.3 2.8 3.7 3.9 6.6 4.2 3.8.4 7.3-.6 10.6-2.5 4.6-2.6 9.1-5.4 13.6-8.2 1.3-.8 2.3-.8 3.5.1 1.6 1.2 3.4 2.3 5 3.5 4.7-4.2 10-3.5 13.7-1.2 4.7 3.2 6.1 7.4 4.5 13.9M59.7 55c-4.3 4.5-9.8 4.6-14.1 2-2.5-1.5-4.3-3.6-5.1-6.5-.8-2.8-.4-5.5.8-8.2-1.4-1-2.7-1.9-4.1-2.8-.2-.1-.7 0-1 .1-3.7 2.2-7.4 4.5-11.2 6.7-5 3-10.4 4.3-16.1 3.2-3.3-.6-6-2.1-7.7-5.2-1.3-2.4-1.4-5-1-7.6.9-5.3 3.5-9.7 7.5-13.2C15.5 17 23.3 10.4 31.1 3.9c8.1-6.7 20.4-4.4 25.4 4.6 2.1 3.7 2.6 7.7 1.7 11.9-.1.6 0 .9.5 1.2 4.8 3.2 9.5 6.5 14.2 9.8.5.3.8.3 1.3 0 9.1-6.1 21.2-2.1 24.9 8.2 1.4 3.8 1.5 7.6.2 11.4-3.3 9.6-6.6 19.2-10 28.7-2 5.4-5.4 9.7-10.7 12.4-5.3 2.6-10.3 1.3-13.6-3.5-3.3-4.9-4.2-10.4-3.3-16.1.7-4.5 1.6-8.9 2.4-13.4.1-.6 0-1-.6-1.3-1.3-1-2.5-1.9-3.8-2.8"/><path class="st1" d="M78.1 53.5c-.9-.6-1.8-1.3-2.7-1.9-1.1-.8-1.4-2-.7-3s1.9-1.2 3-.4c.9.6 1.8 1.2 2.8 1.9.6-.9 1.3-1.8 1.9-2.7.8-1.2 2-1.5 3-.8s1.1 1.9.3 3.1l-1.8 2.7c.9.7 1.8 1.3 2.7 1.9 1.2.8 1.5 2 .7 3-.7 1-1.9 1.1-3 .4l-2.7-1.8-.1-.1-1.8 2.7c-.8 1.2-2 1.5-3 .8s-1.2-1.9-.3-3.1c.6-.8 1.1-1.7 1.7-2.5-.1 0-.1 0 0-.2M41.5 26.8c.3 1.1-.4 2.3-1.6 2.6-1.1.3-2.3-.4-2.6-1.6-.3-1.2.4-2.3 1.6-2.6 1.2-.2 2.3.5 2.6 1.6M45.5 21.3c-1.2.3-2.3-.4-2.6-1.6-.3-1.1.5-2.3 1.6-2.6 1.1-.3 2.3.4 2.6 1.6.2 1.2-.5 2.4-1.6 2.6M35.5 11c1.2-.3 2.3.4 2.5 1.6.3 1.2-.4 2.3-1.6 2.6-1.1.3-2.3-.5-2.6-1.6-.2-1.2.6-2.3 1.7-2.6M30.9 23.2c-1.2.3-2.3-.5-2.5-1.6-.2-1.2.5-2.3 1.6-2.5 1.1-.2 2.3.5 2.5 1.7.3 1.1-.5 2.2-1.6 2.4"/><path class="st2" d="M-461-1307.8h600v3000h-600z"/></svg>