<?xml version="1.0" encoding="utf-8"?>
<!-- Generator: Adobe Illustrator 19.2.0, SVG Export Plug-In . SVG Version: 6.00 Build 0)  -->
<svg version="1.1" id="Layer_1" xmlns:sketch="http://www.bohemiancoding.com/sketch/ns"
	 xmlns="http://www.w3.org/2000/svg" xmlns:xlink="http://www.w3.org/1999/xlink" x="0px" y="0px" viewBox="0 0 14 11"
	 style="enable-background:new 0 0 14 11;" xml:space="preserve">
<style type="text/css">
	.st0{fill:#7B7B7B;}
</style>
<title>photoshoot</title>
<desc>Created with Sketch.</desc>
<metadata><?xpacket begin="﻿" id="W5M0MpCehiHzreSzNTczkc9d"?>
<x:xmpmeta xmlns:x="adobe:ns:meta/" x:xmptk="Adobe XMP Core 5.6-c111 79.158366, 2015/09/25-01:12:00        ">
   <rdf:RDF xmlns:rdf="http://www.w3.org/1999/02/22-rdf-syntax-ns#">
      <rdf:Description rdf:about=""
            xmlns:dc="http://purl.org/dc/elements/1.1/">
         <dc:description>
            <rdf:Alt>
               <rdf:li xml:lang="x-default">Created with Sketch.</rdf:li>
            </rdf:Alt>
         </dc:description>
         <dc:title>
            <rdf:Alt>
               <rdf:li xml:lang="x-default">photoshoot</rdf:li>
            </rdf:Alt>
         </dc:title>
      </rdf:Description>
   </rdf:RDF>
</x:xmpmeta>
                                                                                                    
                                                                                                    
                                                                                                    
                                                                                                    
                                                                                                    
                                                                                                    
                                                                                                    
                                                                                                    
                                                                                                    
                                                                                                    
                                                                                                    
                                                                                                    
                                                                                                    
                                                                                                    
                                                                                                    
                                                                                                    
                                                                                                    
                                                                                                    
                                                                                                    
                                                                                                    
                           
<?xpacket end="w"?></metadata>
<g>
	<g>
		<path class="st0" d="M12.1,6L9.6,3.2l0,0c-0.1-0.5-0.3-1-0.6-1.3l0.8-1.1C10,0.6,10,0.3,9.8,0.1C9.6-0.1,9.3,0,9.1,0.2L8.3,1.3
			C7.9,1,7.5,0.9,7,0.9C6.5,0.9,6.1,1,5.7,1.3L4.9,0.2C4.7,0,4.4-0.1,4.2,0.1C4,0.3,4,0.6,4.1,0.8l0.8,1.1C4.6,2.3,4.4,2.7,4.4,3.2
			l0,0L1.9,6C1.6,6.3,1.4,6.7,1.4,7.2C1.4,7.6,1.6,8,2,8.3c0.3,0.3,0.7,0.4,1.1,0.4c0,0,0,0,0.1,0c0.4,0,0.9-0.2,1.2-0.5L4.5,8
			c0.3,0.9,1.1,1.6,2,1.7v0.8C6.5,10.8,6.7,11,7,11c0.3,0,0.5-0.2,0.5-0.5V9.8c0.9-0.2,1.7-0.8,2-1.7l0.2,0.2
			c0.3,0.3,0.7,0.5,1.2,0.5c0,0,0,0,0.1,0c0.4,0,0.8-0.2,1.1-0.4c0.3-0.3,0.5-0.7,0.5-1.2C12.6,6.7,12.4,6.3,12.1,6z M3.8,7.7
			C3.6,7.9,3.4,8,3.1,8l0,0C2.9,8,2.6,7.9,2.5,7.8C2.3,7.6,2.2,7.4,2.1,7.1c0-0.3,0.1-0.5,0.2-0.7l2-2.1v2.8L3.8,7.7z M8.7,7.2H5.3
			V5.9h3.4C8.7,5.9,8.7,7.2,8.7,7.2z M8.7,4.8H5.3V3.5h3.4C8.7,3.5,8.7,4.8,8.7,4.8z M11.9,7.1c0,0.3-0.1,0.5-0.3,0.7
			C11.4,7.9,11.1,8,10.9,8l0,0c-0.3,0-0.5-0.1-0.7-0.3L9.6,7.1V4.3l2,2.1C11.8,6.6,11.9,6.9,11.9,7.1z"/>
	</g>
</g>
</svg>
