<svg xmlns="http://www.w3.org/2000/svg" viewBox="0 0 125.7 40.5"><style>.st0{fill:#FFF}</style><g id="Layer_1"><g id="XMLID_290_"><path id="XMLID_291_" class="st0" d="M3.6 19.9c-.1-.2 0-.4.2-.5l.7-.4c.2-.1.4 0 .5.2l2.9 5.4 7.5-4-2.9-5.4c-.1-.2 0-.4.2-.5l.7-.4c.2-.1.4 0 .5.2l6.6 12.3c.1.2 0 .4-.2.5l-.7.4c-.2.1-.4 0-.5-.2l-3-5.6-7.5 4 3 5.6c.1.2 0 .4-.2.5l-.7.4c-.2.1-.4 0-.5-.2L3.6 19.9z"/></g><g id="XMLID_286_"><path id="XMLID_287_" class="st0" d="M26.1 9.1c4-1.3 8.2.8 9.5 4.8 1.3 4-.8 8.2-4.8 9.5-4 1.3-8.2-.8-9.5-4.8s.8-8.2 4.8-9.5zm4.2 13c3.2-1 4.9-4.5 3.9-7.7-1-3.2-4.5-4.9-7.7-3.9-3.2 1-4.9 4.5-3.9 7.7 1.1 3.2 4.6 4.9 7.7 3.9z"/></g><g id="XMLID_283_"><path id="XMLID_284_" class="st0" d="M37.6 6.4c-.1-.3 0-.5.3-.6l.9-.1c.2 0 .4.1.4.2l4.4 10.4h.1l1.9-11.5c0-.1.1-.3.3-.3l.4-.1c.2 0 .3.1.4.2l5.1 10.5h.1L53.2 4c0-.2.2-.3.3-.3l.9-.1c.3 0 .5.1.4.4l-1.9 14.5c0 .2-.2.3-.3.3h-.3c-.1 0-.3-.1-.4-.2L46.6 8h-.1l-1.9 11.7c0 .1-.2.3-.3.3H44c-.2 0-.3-.1-.4-.2l-6-13.4z"/></g><g id="XMLID_280_"><path id="XMLID_281_" class="st0" d="M67.3 5.3l-3.6-.2c-.2 0-.4-.2-.4-.4v-.6c0-.2.2-.4.4-.4l8.9.5c.2 0 .4.2.4.4v.6c0 .2-.2.4-.4.4L69 5.4l-.8 12.9c0 .2-.2.4-.4.4H67c-.2 0-.4-.2-.4-.4l.7-13z"/></g><g id="XMLID_276_"><path id="XMLID_277_" class="st0" d="M83.6 5.8c4.1.9 6.7 4.9 5.8 9s-4.9 6.7-9 5.8-6.7-4.8-5.8-8.9c1-4.2 4.9-6.8 9-5.9zm-2.8 13.4c3.3.7 6.5-1.4 7.2-4.7.7-3.3-1.4-6.5-4.7-7.2-3.3-.7-6.5 1.4-7.2 4.7-.7 3.2 1.4 6.5 4.7 7.2z"/></g><g id="XMLID_271_"><path id="XMLID_272_" class="st0" d="M105.2 20.8c.8.9 1.7 2.4.9 4.1-.9 2.2-3.3 3-5.7 2l-4.5-2c-.2-.1-.3-.3-.2-.5l5.5-12.8c.1-.2.3-.3.5-.2l4.3 1.8c2.4 1 3.3 3.2 2.4 5.2-.6 1.6-2 2.2-3.2 2.4zm-4.2 4.7c1.6.7 3 0 3.6-1.4.6-1.4-.1-2.9-1.6-3.5l-3.3-1.4-2.1 4.8 3.4 1.5zm2.2-6.3c1.6.7 3 0 3.6-1.3.6-1.4.1-2.7-1.5-3.4l-2.9-1.3-2 4.7 2.8 1.3z"/></g><g id="XMLID_268_"><path id="XMLID_269_" class="st0" d="M115 18c.1-.2.4-.3.5-.1l7 4.3c.2.1.2.4.1.5l-.3.5c-.1.2-.4.3-.5.1l-6-3.7-2.7 4.4 5.1 3.2c.2.1.2.4.1.5l-.3.5c-.1.2-.4.2-.5.1l-5.1-3.2-2.8 4.6 6 3.7c.2.1.2.4.1.5l-.3.5c-.1.2-.4.3-.5.1l-7-4.3c-.2-.1-.2-.4-.1-.5L115 18z"/></g></g></svg>