<?xml version="1.0" encoding="utf-8"?>
<!-- Generator: Adobe Illustrator 19.2.0, SVG Export Plug-In . SVG Version: 6.00 Build 0)  -->
<svg version="1.1" id="Layer_1" xmlns:sketch="http://www.bohemiancoding.com/sketch/ns"
	 xmlns="http://www.w3.org/2000/svg" xmlns:xlink="http://www.w3.org/1999/xlink" x="0px" y="0px" viewBox="0 0 14 11"
	 style="enable-background:new 0 0 14 11;" xml:space="preserve">
<style type="text/css">
	.st0{fill:#7B7B7B;}
</style>
<title>photoshoot</title>
<desc>Created with Sketch.</desc>
<metadata><?xpacket begin="﻿" id="W5M0MpCehiHzreSzNTczkc9d"?>
<x:xmpmeta xmlns:x="adobe:ns:meta/" x:xmptk="Adobe XMP Core 5.6-c111 79.158366, 2015/09/25-01:12:00        ">
   <rdf:RDF xmlns:rdf="http://www.w3.org/1999/02/22-rdf-syntax-ns#">
      <rdf:Description rdf:about=""
            xmlns:dc="http://purl.org/dc/elements/1.1/">
         <dc:description>
            <rdf:Alt>
               <rdf:li xml:lang="x-default">Created with Sketch.</rdf:li>
            </rdf:Alt>
         </dc:description>
         <dc:title>
            <rdf:Alt>
               <rdf:li xml:lang="x-default">photoshoot</rdf:li>
            </rdf:Alt>
         </dc:title>
      </rdf:Description>
   </rdf:RDF>
</x:xmpmeta>
                                                                                                    
                                                                                                    
                                                                                                    
                                                                                                    
                                                                                                    
                                                                                                    
                                                                                                    
                                                                                                    
                                                                                                    
                                                                                                    
                                                                                                    
                                                                                                    
                                                                                                    
                                                                                                    
                                                                                                    
                                                                                                    
                                                                                                    
                                                                                                    
                                                                                                    
                                                                                                    
                           
<?xpacket end="w"?></metadata>
<g>
	<path id="Drupal" class="st0" d="M9.8,1C9.1,0.6,8.5,0.5,8,0.1C7.6-0.2,7.1-0.8,6.6-1.3C6.6-0.4,6.3-0.1,6,0.1C5.4,0.6,5,0.7,4.5,1
		C4.1,1.2,1.7,2.7,1.7,5.7c0,3.1,2.6,5.3,5.4,5.3c2.9,0,5.3-2.1,5.3-5.2C12.5,2.7,10.2,1.3,9.8,1z M9.8,9.8
		c-0.1,0.1-0.6,0.4-1.2,0.5c-0.6,0.1-1.5,0.1-2-0.4c-0.1-0.1-0.1-0.2,0-0.2c0.1,0,0.1-0.1,0.2-0.1s0.1,0,0.1,0C7,9.8,7.4,10,8.2,10
		c0.8,0,1.3-0.2,1.5-0.4c0.1-0.1,0.2,0,0.2,0C9.9,9.7,9.9,9.8,9.8,9.8z M7.8,8.8c0.1-0.1,0.3-0.3,0.5-0.4c0.2-0.1,0.3-0.1,0.5-0.1
		c0.2,0,0.4,0,0.5,0.1c0.1,0.1,0.2,0.3,0.3,0.4c0,0.1,0,0.2-0.1,0.2c-0.1,0-0.1,0-0.2-0.1C9.3,8.9,9.2,8.7,8.8,8.7
		C8.4,8.7,8.2,8.8,8,9C7.8,9.2,7.7,9.2,7.7,9.1C7.6,9.1,7.6,9,7.8,8.8z M12,6.6c0,0.4-0.1,1-0.4,1.4c-0.3,0.4-0.5,0.6-0.8,0.5
		c-0.4,0-1.3-1.4-1.8-1.4c-0.7,0-2.2,1.4-3.4,1.4c-0.7,0-0.9-0.1-1.2-0.3C4.1,8.1,4,7.7,4,7.2c0-0.9,0.9-1.8,2-1.8
		c1.4,0,2.4,1.4,3.1,1.4c0.6,0,1.7-1.2,2.3-1.2C11.9,5.6,12,6.2,12,6.6z"/>
</g>
</svg>
