<svg id="Layer_1" xmlns="http://www.w3.org/2000/svg" viewBox="0 0 86.7 86.8"><style>.st0{fill:#bbe0de}</style><path class="st0" d="M40.9 82.5c13.9-8.7 27.8-17.3 41.6-26-1.4-2.3-2.9-4.6-4.3-6.9-13.9 8.7-27.7 17.3-41.6 26 1.4 2.3 2.8 4.6 4.3 6.9m35.5-35.8c-.2-.3-.3-.5-.4-.7-2.5-4.1-5.1-8.1-7.6-12.1-1-1.6-2-3.1-2.9-4.7-.5-.9-.5-1.5.2-2.3.3-.3.6-.6.9-1 4.3-5.3 4.3-12.9-.1-17.7-5.4-6-14.2-6.4-20.2-.9-1.2 1.1-1.5 1.1-2.8.2C32.9.9 18.4 5.4 14.6 18.3c-.8 2.6-.9 5.2-.6 7.9.1 1.2-.3 1.8-1.3 2.2-1.8.7-3.4 1.7-4.8 3-4.7 4.3-5.8 11.5-2.6 17 3.2 5.5 9.9 8 16 6 1.3-.4 1.9-.2 2.6 1C27.4 61 30.8 66.5 34.3 72c.1.2.3.4.4.7 13.9-8.7 27.8-17.3 41.7-26M63.5 72.5c-7.3 4.6-14.7 9.2-22 13.7-1.4.9-2.1.7-3-.7-5.6-8.9-11.1-17.8-16.7-26.7-.3-.5-.6-.6-1.1-.5-7.5 1.7-15.3-2-18.8-8.9C-1.9 42 .1 33 6.6 27.9c1-.8 2.2-1.4 3.3-2.1.4-.2.6-.5.5-.9-.3-7.1 2-13.2 7.2-18C24.7.3 35-.9 43.5 3.6c.8.4 1.2.5 2-.1C52.2-1.6 61.9-1 67.9 4.8c6.2 6 7 15.7 1.8 22.8-.4.6-.4 1-.1 1.6 5.5 8.8 11.1 17.7 16.6 26.5.9 1.4.7 2.2-.7 3.1-7.4 4.5-14.7 9.1-22 13.7"/></svg>