<svg id="Layer_1" xmlns="http://www.w3.org/2000/svg" viewBox="0 0 181.5 28"><style>.st0{fill:none;stroke:#FFF;stroke-width:2;stroke-linecap:round;stroke-linejoin:round}</style><path class="st0" d="M166.4 27c7.8 0 14-5.8 14-13s-6.3-13-14-13H159v25.9l7.4.1zm-43.5-3.8c-2.4 2.3-5.7 3.8-9.3 3.8-7.3 0-13.2-5.8-13.2-13s5.9-13 13.2-13c3.6 0 6.8 1.4 9.2 3.7m28.4 9.3h-20.7m20.7-13h-20.7v25.9h20.7M92.9 1v25.9m-19.5 0V1M60 1h27.2M34 14c0-7.2 5.9-13 13.2-13 7.3 0 13.2 5.8 13.2 13s-5.9 13-13.2 13C39.9 26.9 34 21.1 34 14zM1 26.7V1l27.2 26V1"/></svg>