<svg id="Layer_1" xmlns="http://www.w3.org/2000/svg" viewBox="0 0 74.9 78.7"><style>.st0{fill:#FFF}.st1{fill:#bbe0de}</style><path class="st0" d="M20.2 16.5l-.1-.1c-.1-.2-.1-.3-.2-.5-.5-1.3-1.3-2.3-2.4-3.1-1.7-1.2-3.5-1.1-5.3-.1-2.7 1.5-4.5 3.8-5.7 6.5-2.3 5.1-2 10.1 1 14.8.2.4.2.5-.1.9-2 2-3.9 4.1-5.5 6.5-1.6 2.4-2.3 5-1.8 7.9.5 2.7 1.7 5 3.3 7.2 3.2 4.3 7.4 7.7 11.9 10.6 2.9 1.9 5.8 3.6 8.8 5.3 3.8 2.1 7.8 3.9 11.9 5.1 3.2.9 6.4 1.5 9.7 1.2 4.8-.4 8.1-2.9 9.9-7.4.9-2.3 1.6-4.7 2.4-7 .1-.4.3-.6.8-.6 2 .2 4-.1 5.9-.8 3.4-1.3 6-3.6 7.9-6.7 1.3-2.1 2.1-4.4 2.1-6.9 0-3.6-2.3-5.3-5.3-5.4-.6 0-1.1.1-1.8.1 0-.2.1-.3.1-.5 1-2.7 1.7-5.6 2-8.5.6-6-.5-11.5-4.1-16.3-.5-.6-.6-1.1-.2-1.9 2.3-5.5.1-12.7-6-15.6-3.7-1.7-7.3-1.6-10.9.2-1.7.8-3 2-4.1 3.5-.2.3-.4.6-.9.5-6.5-.7-12.2 1.3-17.4 5.3-2.2 1.7-4.1 3.6-5.9 5.8"/><path class="st1" d="M62.4 14.6c-.6-3.3-2.3-5.9-5.2-7.6-2.8-1.6-5.8-1.8-8.9-.7 5.2 2 9.8 4.7 14.1 8.3m1.4 1.5c1.3-2.6 1.2-6.7-1-9.8-2.5-3.5-6-4.9-10.2-4.3-2.6.4-5.9 2.5-6.3 3.9 4-1.9 7.9-2 11.6.2 3.7 2.2 5.6 5.6 5.9 10m-4.9 45.6h.8c6.4.1 11.1-4.4 12.8-9.5.4-1.2.6-2.4.5-3.7-.1-1.4-.8-2.2-2.1-2.7-1.3-.4-2.5-.3-3.7.3-.3.1-.6.4-.7.7-.9 1.3-1.5 2.8-2.5 4-2.7 3.2-3.9 7-5.1 10.9M9.2 33.1c.8-.9 1.6-1.7 2.3-2.5 1.5-1.7 3-3.4 3.8-5.5.8-2.1 1.8-4.1 3-5.9.1-.2.2-.4.2-.6 0-1.3-.4-2.4-1.2-3.4-1.2-1.3-2.4-1.6-4-.8-.6.3-1.2.7-1.7 1.2-3 2.7-4.6 6.2-4.7 10.2 0 2.6.8 5 2.3 7.3m15.9 29.5c3.8 2.2 7.8 4.2 12.1 5.3 1.9.5 3.9.8 5.8.9 5.3.2 9-2.5 10.7-7.7 1.1-3.4 1.3-6.8 1-10.3 0-.5.1-.9.5-1.2 2.4-1.7 4.5-3.7 6.2-6.1 1.4-2.1 2.4-4.4 2.6-6.9.1-2-.5-3.8-1.9-5.1-1-.9-2.1-1.7-3.3-2.3-2.1-1-4.3-1.8-6.5-2.7-2.2-.9-4.5-1.6-6.4-3.1-1.6-1.2-3.1-2.5-4.6-3.7-1.9-1.6-3.9-3.2-6.2-4.2-2.6-1.1-5-1-7.3.8-1.6 1.2-2.8 2.8-3.7 4.5-1.5 2.8-2.3 5.9-2.6 9-.1.6-.3 1-.9 1.2-3.2 1.5-6.1 3.5-8.5 6.2-3.4 3.9-3.9 8.4-1.2 12.8.8 1.4 1.8 2.7 2.9 3.8 3.2 3.7 7.2 6.4 11.3 8.8m-4.9-46.1c1.7-2.1 3.7-4.1 5.8-5.7 5.2-4 11-6 17.5-5.3.5.1.7-.2.9-.5 1.1-1.5 2.5-2.7 4.1-3.5 3.6-1.8 7.3-1.9 10.9-.2 6.1 2.9 8.3 10.1 6 15.6-.3.7-.2 1.2.2 1.9 3.7 4.8 4.7 10.3 4.1 16.3-.3 2.9-1 5.7-2 8.5-.1.1-.1.3-.1.5.6 0 1.2-.1 1.8-.1 3 .1 5.4 1.8 5.3 5.4 0 2.5-.8 4.8-2.1 6.9-1.9 3.1-4.5 5.4-7.9 6.7-1.9.7-3.9 1-5.9.8-.5 0-.6.1-.8.6-.8 2.3-1.5 4.7-2.4 7-1.8 4.5-5.1 7-9.9 7.4-3.3.3-6.6-.3-9.7-1.2-4.2-1.2-8.1-3-11.9-5.1-3-1.7-6-3.4-8.8-5.3-4.5-2.9-8.6-6.3-11.9-10.6C1.8 54.4.5 52.1.1 49.4c-.5-2.9.2-5.5 1.8-7.9C3.6 39 5.5 37 7.5 34.9c.3-.3.3-.5.1-.9-3.1-4.7-3.4-9.6-1-14.8 1.2-2.7 3-5 5.7-6.5 1.8-1 3.6-1.1 5.3.1 1.1.8 1.9 1.8 2.4 3.1.1.2.1.3.2.5-.1 0-.1 0 0 .1"/><path class="st1" d="M49.3 60.1c-.3-.1-.5-.1-.6-.2-1.5-.3-2.9-.6-4.4-1-.4-.1-.7 0-1 .3-.6.8-1.3 1.4-2.2 1.6-1.1.3-2.1-.2-2.3-1.3-.1-.6 0-1.3 0-2 .1-.4 0-.5-.4-.7-2.1-1-4.2-2-6.3-3.1-2.7-1.5-5.3-3.2-7.7-5.1-.4-.3-.6-.3-1 .1s-.9.8-1.5 1c-1.3.6-2.5-.1-2.7-1.5-.2-1 .1-2 .5-2.9.2-.4.2-.6-.1-.9-1.3-1.5-2.5-2.9-3.8-4.4l-.3-.3c-.8 1-1 2.1-.8 3.3.3 1.8 1.3 3.2 2.4 4.5 2.6 3.2 5.9 5.6 9.3 7.9 2.9 1.9 6 3.4 9.2 4.6 2.4.9 4.8 1.7 7.4 1.9 1.4.1 2.8.1 4.2-.5.9 0 1.6-.5 2.1-1.3M20.8 38.5c-1.8-1-2.9-.9-4.1.2-.3.3-.4.5-.1.8 1.4 1.6 2.7 3.2 4.1 4.7.6.7.6.6.2 1.5-.3.7-.5 1.4-.6 2.1 0 .4.2 1 .5 1.2.3.2.9 0 1.3-.2.5-.3 1-.8 1.4-1.3.3-.3.5-.4.9-.1l3.6 2.7c2.6 1.8 5.3 3.4 8.2 4.7 1.1.5 2.3 1 3.4 1.5.5.2.6.4.4 1-.2.6-.3 1.2-.3 1.8 0 .9.7 1.3 1.4.8.7-.4 1.3-1 1.8-1.6.3-.4.6-.5 1.1-.4 1.8.4 3.6.8 5.3 1.2.3.1.5.1.6-.3.6-2 .5-3.5-1.8-4.4-1.4-.5-2.8-.9-4.2-1.3-3.6-1-7.1-2.2-10.4-4-3.6-2-6.7-4.6-9.6-7.5-1.1-1.2-2.3-2.3-3.1-3.1m-5.4-.4l-2.7 2.1h-.1c.2-.3.4-.7.6-1 1.9-2.7 5.9-3.5 8.7-1 1.7 1.6 3.3 3.2 5 4.8 4.7 4.5 10.3 7.3 16.5 8.9 1.7.5 3.4 1 5.1 1.6 2.5.8 4 4.2 3.1 7-.2.6-.5 1.2-.8 1.7-.1 0-.1 0-.2-.1.2-1 .3-2 .5-3h-.2c-.3.6-.5 1.2-.8 1.7-.9 1.5-2.3 2.2-3.9 2.5-2.3.4-4.6 0-6.8-.6-5.2-1.4-10-3.7-14.5-6.8-3-2-5.8-4.3-8.2-7-1-1.2-1.9-2.4-2.5-3.9-.9-2.3-.6-4.5 1.1-6.4.1-.1.2-.2.2-.3 0 0 0-.1-.1-.2M33.7 28.7c-.8 1.3-1.6 2.4-2.8 3.4-.4.3-.9.6-1.4.8-1.3.5-2.3-.1-2.5-1.5-.1-.7-.1-1.4.1-2 .6-2.7 1.9-4.9 3.9-6.8.4-.4.9-.7 1.4-1 1.5-.8 2.7 0 2.9 1.7.1 1.2-.2 2.3-.7 3.5-.3.6-.6 1.2-.9 1.9M51.2 38.7c.9-1.4 1.8-2.7 3.1-3.6.8-.6 1.7-1 2.7-.5 1 .6 1.1 1.6.9 2.6-.5 3.3-2.1 6.1-4.7 8.2-.8.6-1.7 1-2.7.5-1-.6-1-1.6-.9-2.6.1-1.6.8-3.1 1.6-4.6M42.5 41.8c-.6.1-1 .1-1.5.2-.4 0-.8 0-.8-.5s.3-.6.7-.7c.9-.1 1.9-.3 2.8-.3.3 0 .7.1.7.3.1.2-.1.6-.2.8-.3.6-.7 1.1-1 1.6-.1.2-.1.5 0 .6.1.1.4.1.6.1.9-.3 1.4-1 1.7-1.8.9-2.5.2-5-2-6.8-1.5-1.3-3.2-2-5.1-2.1-2-.1-3.6.8-4.9 2.3-.5.6-.8 1.4-.6 2.2 0 .2.2.4.4.5.1 0 .4-.1.5-.3.3-.5.5-1.1.9-1.6.2-.3.4-.6.7-.6.2 0 .5.3.6.5.4.8.8 1.7 1.1 2.6.2.4.2.8-.2 1-.4.2-.7-.1-.9-.5-.2-.4-.4-.9-.6-1.4-.3.4-.5.7-.8 1-1 1-2.2.8-2.7-.5-.6-1.5 0-2.8.9-3.9 2.1-2.4 5.1-3.1 8.2-2 1.9.7 3.5 1.8 4.7 3.4 1.7 2.3 1.8 5.6.3 7.9-.5.8-1.3 1.3-2.2 1.5-1.4.2-2.2-.8-1.8-2.1.1-.6.3-.9.5-1.4"/><path class="st1" d="M47.4 36.2c-2.2-3.4-5.3-5.2-9.4-5.3 2.6-1.9 9 1.8 9.4 5.3M13.9 15.7c.2.1.4.2.5.4 1.4 1.3 1.8 3.4.9 5.2-.7 1.5-1.7 2.7-3 3.6-.1.1-.2.1-.3.2-1.3.9-1.3 1.3-.3 2.5.1.1.2.2.3.5-.9-.1-1.4-.5-1.8-1.2-.3-.6-.2-1.3.2-1.8l1.2-1.2c.8-.9 1.6-1.7 2.3-2.7.9-1.3.9-2.7.4-4.1-.2-.4-.4-.9-.6-1.3.1 0 .1 0 .2-.1M62.1 56.9c.3.1.7.1 1 .2.8.1 1.1-.2 1.3-.9.1-.4.1-.7.1-1.1.2-1.8.8-3.4 1.8-4.8 1.1-1.4 3.2-2 4.8-1.4.2.1.3.2.6.3-.3.1-.4.1-.6.1-.5.1-1 .1-1.5.2-1.8.3-2.7 1.7-3.3 3.3-.3.9-.5 1.8-.7 2.7l-.3 1.2c-.2.6-.7 1.1-1.4 1.2-.8 0-1.4-.3-1.8-1"/></svg>