<?xml version="1.0" encoding="UTF-8" standalone="no"?>
<svg width="14px" height="11px" viewBox="0 0 14 11" version="1.1" xmlns="http://www.w3.org/2000/svg" xmlns:xlink="http://www.w3.org/1999/xlink" xmlns:sketch="http://www.bohemiancoding.com/sketch/ns">
    <!-- Generator: Sketch 3.2.2 (9983) - http://www.bohemiancoding.com/sketch -->
    <title>photoshoot</title>
    <desc>Created with Sketch.</desc>
    <defs></defs>
    <g id="Page-1" stroke="none" stroke-width="1" fill="none" fill-rule="evenodd" sketch:type="MSPage">
        <g id="photoshoot" sketch:type="MSLayerGroup" fill="#7B7B7B">
            <path d="M8.48428,3.58028 C7.00826,3.58028 5.8114,4.83413333 5.8114,6.38058667 C5.8114,7.92689333 7.00812,9.18089333 8.48428,9.18089333 C9.9603,9.18089333 11.1573,7.92689333 11.1573,6.38058667 C11.15716,4.83413333 9.9603,3.58028 8.48428,3.58028 L8.48428,3.58028 L8.48428,3.58028 Z" id="Shape" sketch:type="MSShapeGroup"></path>
            <path d="M4.07414,1.21865333 L4.07414,1.11012 C4.07414,0.841133333 3.86596,0.623186667 3.60934,0.623186667 L2.7748,0.623186667 C2.51818,0.623186667 2.31,0.84128 2.31,1.11012 L2.31,1.21865333 L4.07414,1.21865333 L4.07414,1.21865333 Z" id="Shape" sketch:type="MSShapeGroup"></path>
            <path d="M12.81028,1.51066667 L11.39222,1.51066667 C10.92742,1.51066667 10.92742,0 10.46248,0 L6.50608,0 C6.04114,0 6.04114,1.51066667 5.57634,1.51066667 L1.18958,1.51066667 C0.54796,1.51066667 0.02758,2.05582667 0.02758,2.72814667 L0.02758,9.73925333 C0.02758,10.4115733 0.54796,10.95688 1.18958,10.9565867 L12.81028,10.9565867 C13.45204,10.9565867 13.97242,10.4114267 13.97242,9.73910667 L13.97242,2.72814667 C13.97242,2.05597333 13.45204,1.51066667 12.81028,1.51066667 L12.81028,1.51066667 Z M8.48428,10.03288 C6.55914,10.03288 4.998,8.39725333 4.998,6.38058667 C4.998,4.36392 6.55928,2.72829333 8.48428,2.72829333 C10.40928,2.72829333 11.97042,4.36377333 11.97056,6.38058667 C11.97056,8.39725333 10.40928,10.03288 8.48428,10.03288 L8.48428,10.03288 Z" id="Shape" sketch:type="MSShapeGroup"></path>
        </g>
    </g>
</svg>