<?xml version="1.0" encoding="UTF-8" standalone="no"?>
<svg width="14px" height="11px" viewBox="0 0 14 11" version="1.1" xmlns="http://www.w3.org/2000/svg" xmlns:xlink="http://www.w3.org/1999/xlink" xmlns:sketch="http://www.bohemiancoding.com/sketch/ns">
    <!-- Generator: Sketch 3.2.2 (9983) - http://www.bohemiancoding.com/sketch -->
    <title>pingpong</title>
    <desc>Created with Sketch.</desc>
    <defs></defs>
    <g id="Design" stroke="none" stroke-width="1" fill="none" fill-rule="evenodd" sketch:type="MSPage">
        <g id="Artboard-6" sketch:type="MSArtboardGroup" transform="translate(-953.000000, -3572.000000)" fill="#7B7B7B">
            <g id="pingpong" sketch:type="MSLayerGroup" transform="translate(953.000000, 3572.000000)">
                <g id="layer1" transform="translate(0.000000, 0.096110)" sketch:type="MSShapeGroup">
                    <g id="g3071" transform="translate(0.037450, 0.148554)">
                        <path d="M2.60513478,3.24606755 C1.94871587,3.63765925 1.10935622,3.40527132 0.730372584,2.72701461 C0.351388951,2.04875789 0.576294846,1.18147461 1.23271375,0.789882911 C1.88913265,0.398291212 2.72849216,0.630678864 3.10747579,1.30893558 C3.48645942,1.98719229 3.26155368,2.85447585 2.60513478,3.24606755 L2.60513478,3.24606755 L2.60513478,3.24606755 Z" id="path3017"></path>
                        <path d="M13.0858728,3.00594608 C11.5699092,0.321129671 9.15513169,0.0767490644 7.0457469,1.32200888 C5.44289303,2.26824281 4.65944684,3.19812096 4.27972479,4.06674672 C4.58109974,4.9918093 5.08772013,6.13302932 5.76299415,7.32894861 C6.43826817,8.52489966 7.1515416,9.54414219 7.7843393,10.2735294 C8.74265787,10.3628207 9.93966239,10.1129892 11.4920445,9.19653815 C13.6014293,7.95128786 14.6018365,5.69076566 13.0858728,3.00594608 L13.0858728,3.00594608 Z M6.94306033,10.0938985 C6.41164071,9.41695526 5.83475312,8.56781413 5.29217744,7.60689208 C4.75371798,6.65327597 4.31979941,5.72843892 4.01252289,4.92367345 C3.88477303,5.65096416 3.97500685,6.32520737 4.01152878,6.90723689 L1.11937007,8.61460393 L1.06051802,8.64932304 L1.06537361,8.65789958 C0.797411831,8.88409792 0.8027011,9.44344724 1.09392,9.95921503 C1.38542223,10.4754593 1.85620135,10.7602322 2.18180267,10.6351418 L2.18665826,10.6437183 L2.24551031,10.6089992 L5.05359463,8.95124906 C5.55494781,9.35469592 6.1515187,9.83171045 6.94306562,10.0938667 L6.94306033,10.0938985 Z" id="path3019"></path>
                    </g>
                </g>
            </g>
        </g>
    </g>
</svg>