<svg id="Layer_1" xmlns="http://www.w3.org/2000/svg" viewBox="0 0 93.1 103.8"><style>.st0{fill:#FFF}.st1{fill:#bbe0de}.st2{fill:#badfdd}</style><path class="st0" d="M0 48.6C31 67 62 85.3 93.1 103.8 84.3 69.1 75.6 34.6 66.8 0c-15.3 3.4-29 10-41.4 19.5C15 27.5 6.5 37.2 0 48.6"/><path class="st1" d="M64.1 4.1C39.2 11.4 19 25.2 4.7 47.3c4 2.4 8 4.7 11.9 7C28.7 35.1 45.9 23 67.4 16.8c-1.1-4.2-2.2-8.3-3.3-12.7m4.2 16.1c-20.7 6-37 17.8-48.7 35.9C42.4 69.6 64.9 83 87.7 96.5 81.2 71 74.8 45.7 68.3 20.2M0 48.6c6.5-11.5 15-21.1 25.4-29.1C37.8 10 51.5 3.4 66.8 0c8.8 34.6 17.5 69.1 26.3 103.8C62 85.3 31 67 0 48.6"/><path class="st0" d="M69.7 39.2c-1.3-.8-2.8-.4-3.6.9-.8 1.3-.4 2.8.8 3.6 1.2.8 2.9.4 3.6-.9.9-1.2.5-2.9-.8-3.6M73 73c-.8 1.2-.4 2.9.9 3.6 1.2.8 2.9.4 3.6-.9.8-1.2.4-2.8-.9-3.6-1.2-.7-2.8-.3-3.6.9M47.8 36.7c-1.3-.8-2.8-.4-3.6.9-.7 1.2-.3 2.9.9 3.6 1.2.7 2.9.3 3.6-.9.8-1.3.4-2.9-.9-3.6m9.6-5.9c-.6 3.8-1.2 7.4-1.8 11.2 1.1.2 2.2.4 3.3.5.6-3.8 1.2-7.5 1.8-11.2-.8-.1-1.4-.2-2.1-.4-.3 0-.7 0-1.2-.1m7.7 40.8c-3.8-.6-7.5-1.2-11.2-1.8-.2 1.2-.4 2.2-.5 3.3 3.8.6 7.5 1.2 11.2 1.8.2-1.1.3-2.1.5-3.3M72.8 61c2.2-3.8 1-8.6-2.8-10.8-3.7-2.2-8.6-1-10.8 2.7-2.2 3.8-1 8.7 2.8 10.9 3.8 2.2 8.6 1 10.8-2.8m-26-11.3c-3.8-2.2-8.6-1-10.8 2.8-2.2 3.8-1 8.6 2.8 10.8 3.8 2.2 8.7 1 10.9-2.8 2.2-3.8.9-8.6-2.9-10.8m21.5-29.5C74.8 45.7 81.2 71 87.7 96.5 64.9 83 42.4 69.6 19.6 56.2c11.7-18.2 28-29.9 48.7-36"/><path class="st0" d="M64.1 4.1c1.1 4.3 2.2 8.5 3.3 12.7C45.9 23 28.7 35.2 16.6 54.3c-3.9-2.3-7.8-4.6-11.9-7C19 25.2 39.2 11.4 64.1 4.1"/><path class="st1" d="M45.1 52.6c-2.2-1.3-4.9-.6-6.2 1.6-1.2 2.1-.5 4.9 1.6 6.2 2.1 1.3 4.9.6 6.2-1.6 1.3-2.1.6-4.9-1.6-6.2m1.7-2.9c3.8 2.2 5.1 7 2.9 10.8-2.2 3.8-7.1 5.1-10.9 2.8-3.7-2.2-5-7.1-2.8-10.8 2.3-3.8 7.1-5 10.8-2.8"/><path class="st2" d="M69.9 59.3c1.3-2.2.6-5-1.6-6.2-2.1-1.2-4.9-.5-6.2 1.6-1.3 2.2-.6 4.9 1.5 6.2 2.2 1.3 5 .6 6.3-1.6m2.9 1.7c-2.2 3.8-7 5-10.8 2.8-3.8-2.2-5-7.1-2.8-10.9 2.2-3.7 7.1-5 10.8-2.7 3.8 2.2 5 7.1 2.8 10.8"/><path class="st1" d="M65.1 71.6c-.2 1.1-.4 2.2-.5 3.3-3.7-.6-7.4-1.2-11.2-1.8.2-1.1.4-2.2.5-3.3 3.8.6 7.4 1.2 11.2 1.8M57.4 30.8c.5.1.9.1 1.3.2.6.1 1.3.2 2 .4-.6 3.7-1.2 7.4-1.8 11.2-1.1-.2-2.2-.4-3.3-.5.6-3.8 1.2-7.5 1.8-11.3"/><path class="st2" d="M47.8 36.7c1.3.7 1.7 2.3.9 3.6-.7 1.2-2.4 1.7-3.6.9-1.2-.7-1.6-2.4-.9-3.6.8-1.3 2.3-1.7 3.6-.9M73 73c.8-1.2 2.4-1.6 3.6-.9 1.2.8 1.6 2.4.9 3.6-.8 1.2-2.4 1.6-3.6.9-1.3-.7-1.6-2.3-.9-3.6M69.7 39.2c1.2.8 1.6 2.4.9 3.6-.8 1.2-2.4 1.6-3.6.9-1.2-.8-1.6-2.4-.8-3.6.7-1.3 2.3-1.7 3.5-.9"/><path class="st0" d="M45.1 52.6c2.2 1.3 2.9 4 1.6 6.2-1.3 2.1-4.1 2.9-6.2 1.6-2.1-1.3-2.8-4-1.6-6.2 1.3-2.1 4.1-2.8 6.2-1.6M69.9 59.3c-1.3 2.2-4 2.9-6.2 1.6-2.2-1.3-2.8-4.1-1.5-6.2 1.3-2.1 4-2.8 6.2-1.6 2 1.3 2.7 4.1 1.5 6.2"/></svg>