<svg id="Layer_1" xmlns="http://www.w3.org/2000/svg" viewBox="0 0 215.9 259.3"><style>.st0{fill:none;stroke:#bce0de;stroke-width:8;stroke-miterlimit:10}.st1{fill:#bce0de}</style><path class="st0" d="M164.4 4.2S71.8 10.6 5.5 110.8l204.7 139.8L164.4 4.2zM172.3 47s-77.9 8.3-132.4 87.3M104.8 124.6L79 119.4"/><ellipse transform="rotate(-10.527 147.513 103.68)" class="st0" cx="147.5" cy="103.7" rx="16.8" ry="16.8"/><ellipse transform="rotate(-10.527 130.274 155.128)" class="st0" cx="130.3" cy="155.1" rx="16.8" ry="16.8"/><path class="st0" d="M171.4 139l-4.9 25.8"/><g><path class="st1" d="M107.4 99.5c7.7 0 7.7-11.9 0-11.9-7.6 0-7.6 11.9 0 11.9z"/></g><g><path class="st1" d="M94.2 152.8c7.7 0 7.7-11.9 0-11.9s-7.7 11.9 0 11.9z"/></g><g><path class="st1" d="M170.5 198.1c7.7 0 7.7-11.9 0-11.9-7.6 0-7.7 11.9 0 11.9z"/></g></svg>