<?xml version="1.0" encoding="UTF-8" standalone="no"?>
<svg width="22px" height="22px" viewBox="0 0 22 22" version="1.1" xmlns="http://www.w3.org/2000/svg" xmlns:xlink="http://www.w3.org/1999/xlink" xmlns:sketch="http://www.bohemiancoding.com/sketch/ns">
    <!-- Generator: Sketch 3.2.2 (9983) - http://www.bohemiancoding.com/sketch -->
    <title>social-linkedin</title>
    <desc>Created with Sketch.</desc>
    <defs></defs>
    <g id="Design" stroke="none" stroke-width="1" fill="none" fill-rule="evenodd" sketch:type="MSPage">
        <g id="Artboard-6" sketch:type="MSArtboardGroup" transform="translate(-727.000000, -2442.000000)" fill="#585858">
            <path d="M727,2445.00139 C727,2443.34377 728.343081,2442 730.001387,2442 L745.998613,2442 C747.656233,2442 749,2443.34308 749,2445.00139 L749,2460.99861 C749,2462.65623 747.656919,2464 745.998613,2464 L730.001387,2464 C728.343767,2464 727,2462.65692 727,2460.99861 L727,2445.00139 Z M730.666667,2450.41203 L730.666667,2460.10546 L733.806723,2460.10546 L733.806723,2450.41203 L730.666667,2450.41203 Z M732.443131,2445.66667 C731.368937,2445.66667 730.666667,2446.39057 730.666667,2447.34101 C730.666667,2448.27176 731.348181,2449.01651 732.40237,2449.01651 L732.422437,2449.01651 C733.517324,2449.01651 734.199215,2448.27176 734.199215,2447.34101 C734.178835,2446.39057 733.517324,2445.66667 732.443131,2445.66667 Z M741.717948,2450.41203 C740.050784,2450.41203 739.304367,2451.35288 738.887607,2452.0129 L738.887607,2450.63991 L735.747174,2450.63991 C735.788562,2451.54949 735.747174,2460.33333 735.747174,2460.33333 L738.887607,2460.33333 L738.887607,2454.91973 C738.887607,2454.63002 738.907987,2454.34102 738.991013,2454.13361 C739.217955,2453.55484 739.734671,2452.95562 740.602178,2452.95562 C741.738892,2452.95562 742.193277,2453.84448 742.193277,2455.14709 L742.193277,2460.33308 L745.333208,2460.33308 L745.333333,2454.77516 C745.333333,2451.79776 743.78425,2450.41203 741.717948,2450.41203 Z" id="social-linkedin" sketch:type="MSShapeGroup"></path>
        </g>
    </g>
</svg>