<?xml version="1.0" encoding="UTF-8" standalone="no"?>
<svg width="27px" height="22px" viewBox="0 0 27 22" version="1.1" xmlns="http://www.w3.org/2000/svg" xmlns:xlink="http://www.w3.org/1999/xlink" xmlns:sketch="http://www.bohemiancoding.com/sketch/ns">
    <!-- Generator: Sketch 3.2.2 (9983) - http://www.bohemiancoding.com/sketch -->
    <title>social-twitter</title>
    <desc>Created with Sketch.</desc>
    <defs></defs>
    <g id="Design" stroke="none" stroke-width="1" fill="none" fill-rule="evenodd" sketch:type="MSPage">
        <g id="Artboard-6" sketch:type="MSArtboardGroup" transform="translate(-666.000000, -2442.000000)" fill="#585858">
            <path d="M693,2444.60487 C692.00625,2445.04628 690.93825,2445.34482 689.8185,2445.47867 C690.96375,2444.79136 691.842,2443.70399 692.25375,2442.40757 C691.18275,2443.04375 689.99925,2443.50547 688.73475,2443.75287 C687.7275,2442.67378 686.286,2442 684.69225,2442 C681.6345,2442 679.15425,2444.48681 679.15425,2447.55339 C679.15425,2447.98954 679.2015,2448.41215 679.2975,2448.81823 C674.69475,2448.58586 670.61325,2446.37729 667.87875,2443.01518 C667.40175,2443.83785 667.13025,2444.79136 667.13025,2445.80954 C667.13025,2447.73462 668.10825,2449.43485 669.59325,2450.43198 C668.68725,2450.40416 667.8315,2450.15224 667.083,2449.73865 L667.083,2449.80633 C667.083,2452.49918 668.99325,2454.74385 671.52825,2455.25219 C671.064,2455.38228 670.57575,2455.4477 670.06875,2455.4477 C669.71175,2455.4477 669.3645,2455.41462 669.027,2455.34919 C669.732,2457.55551 671.77575,2459.16174 674.20125,2459.20461 C672.3045,2460.69504 669.915,2461.58238 667.3215,2461.58238 C666.8745,2461.58238 666.43275,2461.55756 666,2461.50567 C668.45175,2463.08033 671.36325,2464 674.49,2464 C684.68175,2464 690.25125,2455.53869 690.25125,2448.19859 C690.25125,2447.95721 690.24675,2447.71657 690.23625,2447.4797 C691.31925,2446.69613 692.2605,2445.7178 693,2444.60487" id="social-twitter" sketch:type="MSShapeGroup"></path>
        </g>
    </g>
</svg>