<?xml version="1.0" encoding="UTF-8" standalone="no"?>
<svg width="22px" height="22px" viewBox="0 0 22 22" version="1.1" xmlns="http://www.w3.org/2000/svg" xmlns:xlink="http://www.w3.org/1999/xlink" xmlns:sketch="http://www.bohemiancoding.com/sketch/ns">
    <!-- Generator: Sketch 3.2.2 (9983) - http://www.bohemiancoding.com/sketch -->
    <title>social-instagram</title>
    <desc>Created with Sketch.</desc>
    <defs></defs>
    <g id="Design" stroke="none" stroke-width="1" fill="none" fill-rule="evenodd" sketch:type="MSPage">
        <g id="Artboard-6" sketch:type="MSArtboardGroup" transform="translate(-756.000000, -2442.000000)" fill="#585858">
            <path d="M775.856222,2459.7486 C775.856222,2460.91174 774.910833,2461.85596 773.747889,2461.85596 L760.2515,2461.85596 C759.088556,2461.85596 758.143778,2460.91174 758.143778,2459.7486 L758.143778,2450.74129 L761.427889,2450.74129 C761.144944,2451.44028 760.984222,2452.20164 760.984222,2453.00031 C760.984222,2456.31789 763.682889,2459.01537 767,2459.01537 C770.317111,2459.01537 773.015167,2456.31789 773.015167,2453.00031 C773.015167,2452.20164 772.853833,2451.44028 772.572111,2450.74129 L775.856222,2450.74129 L775.856222,2459.7486 L775.856222,2459.7486 Z M763.860722,2450.74129 C764.5635,2449.76589 765.7075,2449.12684 767,2449.12684 C768.2925,2449.12684 769.435278,2449.76589 770.138667,2450.74129 C770.597611,2451.3779 770.873833,2452.15577 770.873833,2453.00031 C770.873833,2455.13579 769.135222,2456.87133 767,2456.87133 C764.864167,2456.87133 763.127389,2455.13579 763.127389,2453.00031 C763.127389,2452.15577 763.402389,2451.3779 763.860722,2450.74129 L763.860722,2450.74129 Z M774.967056,2444.53665 L775.452889,2444.5342 L775.452889,2448.26213 L771.736722,2448.27619 L771.723278,2444.54644 L774.967056,2444.53665 L774.967056,2444.53665 Z M760.2515,2442 C757.907889,2442 756,2443.90677 756,2446.2514 L756,2459.7486 C756,2462.09323 757.907889,2464 760.2515,2464 L773.747889,2464 C776.0915,2464 778,2462.09323 778,2459.7486 L778,2446.2514 C778,2443.90677 776.0915,2442 773.747889,2442 L760.2515,2442 Z" id="social-instagram" sketch:type="MSShapeGroup"></path>
        </g>
    </g>
</svg>