<?xml version="1.0" encoding="UTF-8" standalone="no"?>
<svg width="12px" height="11px" viewBox="0 0 12 11" version="1.1" xmlns="http://www.w3.org/2000/svg" xmlns:xlink="http://www.w3.org/1999/xlink" xmlns:sketch="http://www.bohemiancoding.com/sketch/ns">
    <!-- Generator: Sketch 3.2.2 (9983) - http://www.bohemiancoding.com/sketch -->
    <title>telephone</title>
    <desc>Created with Sketch.</desc>
    <defs></defs>
    <g id="Design" stroke="none" stroke-width="1" fill="none" fill-rule="evenodd" sketch:type="MSPage">
        <g id="Artboard-8" sketch:type="MSArtboardGroup" transform="translate(-475.000000, -3600.000000)" fill="#7B7B7B">
            <path d="M487,3608.62818 C487,3608.48489 486.880414,3608.25908 486.797822,3608.19176 C486.394817,3607.86325 485.64854,3607.72572 484.850643,3607.32313 C484.051885,3606.92042 483.981584,3607.04741 483.840858,3607.11085 C483.699149,3607.17429 483.091262,3608.03105 482.798995,3608.30489 C482.613286,3608.47934 482.346214,3608.45361 482.243957,3608.42578 C479.948467,3607.75156 478.112271,3605.13956 478.112271,3605.13956 C477.900137,3604.94913 478.112271,3604.73896 478.112271,3604.73896 C478.518716,3604.3642 478.698895,3604.19363 478.933028,3603.91192 C479.356066,3603.40219 478.135131,3601.51819 477.971545,3601.11548 C477.806607,3600.71288 476.914319,3600.86161 476.914319,3600.86161 C475.169687,3601.10162 474.747632,3603.18592 475.130111,3603.99721 C477.468619,3608.96867 483.01076,3612.25023 486.113611,3610.22925 C486.113611,3610.22925 486.113611,3610.22925 486.113611,3610.22937 C486.113489,3610.22937 487,3609.79849 487,3608.62818 L487,3608.62818 Z" id="telephone" sketch:type="MSShapeGroup" transform="translate(481.000000, 3605.834759) scale(-1, 1) translate(-481.000000, -3605.834759) "></path>
        </g>
    </g>
</svg>