<svg version="1.1" id="Layer_1" class="logo-animated" xmlns="http://www.w3.org/2000/svg" xmlns:xlink="http://www.w3.org/1999/xlink" x="0px" y="0px"&'à'
								 viewBox="0 0 300 300" style="enable-background:new 0 0 300 300;width:130px;height: 140px;" xml:space="preserve">
							<style type="text/css">
								.st3{fill:none;stroke:#BCE0DE;stroke-width:8;stroke-miterlimit:10;}.st4{fill:#FFFFFF;stroke:#BCE0DE;stroke-width:8;stroke-miterlimit:10;}
							</style>
							
							<g>
								<g>
									<path class="st2" d="M-123.6,65.1c0,30.2-34.4,54.7-76.9,54.7s-76.9-24.5-76.9-54.7c0-0.6,0-1.2,0-1.7c0-0.5,0.1-1.1,0.1-1.6
										c2.4-28.7,35.9-51.4,76.8-51.4C-158.1,10.4-123.6,34.9-123.6,65.1z"/>
									<path class="st2" d="M-277.5,62.5c0,0,29-16.7,50.8-8.7s38.3,20.3,54.1,22.8s31.2,3.6,48.6-6.9"/>
								</g>
								<g>
									<path class="st2" d="M-66.1,113.1c25,17,25.8,59.3,1.9,94.4s-63.5,49.8-88.5,32.8c-0.5-0.3-1-0.7-1.4-1c-0.4-0.3-0.8-0.6-1.2-1
										c-22.3-18.1-22.3-58.6,0.8-92.4C-130.7,110.8-91.1,96.1-66.1,113.1z"/>
									<path class="st2" d="M-154.9,238.8c0,0,2.6-33.4,21.4-46.9s38.4-20.2,49.3-31.9c11-11.7,20.6-23.7,21.7-44.1"/>
								</g>
							</g>
							<path class="st3" d="M164.4,11c1,4.1,0.4,8.5-1.7,12.1c-1.1,2-2.7,3.8-3.4,6.1c-1,3.3,0.2,6.9,1.9,9.9c1.7,3,3.9,5.8,5.2,9
								c1.3,3.2,1.5,7.2-0.7,9.9c-0.9,1.1-2,1.9-3,2.9c-2.4,2.5-3.4,6-4.2,9.4"/>
							<path class="st3" d="M138.2,35.9c-0.6,2.5-0.2,5.2,1,7.4c0.7,1.2,1.7,2.3,2.1,3.7c0.6,2-0.1,4.2-1.1,6.1c-1,1.8-2.4,3.5-3.1,5.5
								c-0.8,2-0.9,4.4,0.4,6c0.5,0.7,1.2,1.1,1.8,1.7c1.5,1.5,2.1,3.7,2.6,5.7"/>
							<g>
								<g>
									<path class="st3" d="M195.6,150c0,26.5-30.2,48-67.5,48s-67.5-21.5-67.5-48c0-0.5,0-1,0-1.5c0-0.5,0-0.9,0.1-1.4
										C62.9,122,92.3,102,128.2,102C165.4,102,195.6,123.5,195.6,150z"/>
									<path class="st3" d="M60.7,147.7c0,0,25.5-14.6,44.6-7.6c19.1,7,33.6,17.8,47.4,20c13.9,2.2,27.3,3.2,42.7-6.1"/>
								</g>
								<g>
									<path class="st4" d="M229.7,158.3c21.9,14.9,22.6,52,1.7,82.8s-55.7,43.7-77.6,28.7c-0.4-0.3-0.8-0.6-1.2-0.9
										c-0.4-0.3-0.7-0.6-1.1-0.9c-19.6-15.9-19.5-51.4,0.7-81C173.1,156.3,207.8,143.4,229.7,158.3z"/>
									<path class="st4" d="M151.9,268.5c0,0,2.3-29.3,18.8-41.1s33.6-17.7,43.3-27.9c9.6-10.2,18-20.8,19-38.7"/>
								</g>
							</g>
							</svg>