<svg version="1.1" id="Layer_1" viewBox="0 0 215.9 259.3" style="enable-background:new 0 0 215.9 259.3;width: 130px;height: 140px;">
								<style type="text/css">
								  .st0{fill:none;stroke:#BCE0DE;stroke-width:8;stroke-miterlimit:10;}
								  .st1{fill:#BCE0DE;}
								</style>
								<g>
								  <g>
								    <path class="st0" d="M164.4,4.2c0,0-92.6,6.4-158.9,106.6l204.7,139.8L164.4,4.2z"/>
								    <path class="st0" d="M172.3,47c0,0-77.9,8.3-132.4,87.3" />
								    <line class="st0" x1="104.8" y1="124.6" x2="79" y2="119.4"/>
								    
								      <ellipse transform="matrix(0.9832 -0.1827 0.1827 0.9832 -16.4597 28.6956)" class="st0" cx="147.5" cy="103.7" rx="16.8" ry="16.8"/>
								    
								      <ellipse transform="matrix(0.9832 -0.1827 0.1827 0.9832 -26.1492 26.4119)" class="st0" cx="130.3" cy="155.1" rx="16.8" ry="16.8" />
								    <line class="st0 " x1="171.4" y1="139" x2="166.5" y2="164.8"//>
								  </g>
								  <path class="st0" d="M105.1,94.4" style ="fill:#000"/>
								  <g>
								    <g>
								      <path class="st1" d="M107.4,99.5c7.7,0,7.7-11.9,0-11.9C99.8,87.6,99.8,99.5,107.4,99.5L107.4,99.5z"/>
								    </g>
								  </g>
								  <g>
								    <g>
								      <path class="st1" d="M94.2,152.8c7.7,0,7.7-11.9,0-11.9C86.5,140.9,86.5,152.8,94.2,152.8L94.2,152.8z" />
								    </g>
								  </g>
								  <g>
								    <g>
								      <path class="st1" d="M170.5,198.1c7.7,0,7.7-11.9,0-11.9C162.9,186.2,162.8,198.1,170.5,198.1L170.5,198.1z"/>
								    </g>
								  </g>
								</g>
</svg>