<?xml version="1.0" encoding="utf-8"?>
<!-- Generator: Adobe Illustrator 19.0.0, SVG Export Plug-In . SVG Version: 6.00 Build 0)  -->
<svg version="1.1" id="Layer_1" xmlns="http://www.w3.org/2000/svg" xmlns:xlink="http://www.w3.org/1999/xlink" x="0px" y="0px"
	 viewBox="0 0 103.7 102.9" style="enable-background:new 0 0 103.7 102.9;" xml:space="preserve">
<style type="text/css">
	.st0{fill:#FFFFFF;}
	.st1{fill:#BBE0DE;}
</style>
<path class="st0" d="M0,61.2c0-0.6,0-1.4,0.1-2.3c0.5-4.1,1.8-7.8,4.6-10.9c2.4-2.7,5.5-4.3,9-5.2c5.4-1.3,10.7-0.6,15.8,1.3
	C40.6,48.3,49,55.7,54.9,65.8c3.3,5.5,5.3,11.4,5.3,17.9c0,5-1.2,9.5-4.7,13.3c-2.6,2.8-5.8,4.6-9.5,5.4c-5.3,1.1-10.5,0.4-15.5-1.5
	C19.5,96.7,11.2,89.3,5.3,79.3C2.1,73.8,0.1,67.9,0,61.2"/>
<path class="st1" d="M40.2,31.3c0.1-0.1,0.1-0.1,0.2-0.2c0.1,0,0.3,0.1,0.4,0.1c2.6,1,5.2,1.4,7.9,1.4c5.9-0.1,11.5-1.6,16.8-4
	c3.1-1.4,6.1-3.2,9.2-4.6c7.9-3.7,15.9-3.6,23.8,0.1c0.6,0.3,0.8,0.6,0.7,1.2c-0.2,2.3-0.8,4.5-2,6.5c-2.5,4.2-6.2,7-10.6,9
	c-10.1,4.6-20.5,5-31,1.8c-5.1-1.6-9.6-4.1-13.1-8.1C41.7,33.4,41,32.3,40.2,31.3 M98.2,19.1c-0.3-0.1-0.5-0.2-0.7-0.2
	c-8.6-3.1-17.1-2.6-25.3,1.4c-3.2,1.6-6.4,3.4-9.6,4.8c-4.9,2.1-10.1,3.5-15.6,3.2c-2.9-0.2-5.5-1-7.8-2.9c-0.5-0.4-0.7-0.9-0.7-1.6
	c0.3-3.9,1.9-7.1,4.6-9.9c2.9-3.1,6.5-5.3,10.5-6.8c7.3-2.8,14.9-3.4,22.6-2.2c5.8,0.9,11.1,2.9,15.8,6.5
	C94.6,13.4,96.8,15.8,98.2,19.1 M66.2,0c-1.8,0.2-3.6,0.4-5.4,0.7C53,2.1,46,4.9,40.4,10.6c-4.1,4.1-6.4,9-6.2,14.8
	c0.1,3.6,1.5,7,3.6,9.9c3.3,4.6,7.8,7.9,13,10c12.9,5.2,25.8,5,38.4-1.1c5.1-2.5,9.3-6,12.1-11c1.8-3.2,2.6-6.6,2.3-10.1
	c-0.4-4.3-2.3-8.2-5.2-11.4C94.1,6.9,88.8,4,82.8,2.1C79.5,1,76,0.4,72.5,0.1C72.2,0.1,72,0,71.7,0H66.2z"/>
<path class="st1" d="M4.7,57.5c0.1,0,0.1,0,0.1,0c0.3,0.6,0.6,1.1,1,1.7c2.6,4.3,6.4,7.3,10.6,9.9c5.1,3.1,10.7,4.9,16.4,6.5
	c9.4,2.6,15.8,8.6,19.4,17.6c0.2,0.6,0.2,1-0.3,1.4c-1.6,1.6-3.5,2.6-5.7,3.3c-4.6,1.3-9.1,0.7-13.5-0.8c-7-2.4-12.9-6.5-17.8-12
	c-5-5.5-8.7-11.6-10.2-19C4.1,63.3,4,60.4,4.7,57.5 M55.2,89.1c-0.2-0.3-0.3-0.6-0.5-0.8C50.2,79.7,43.3,74.2,34,71.5
	c-3.5-1-7-2.1-10.4-3.5c-4.6-1.8-8.8-4.4-12.1-8.1c-2-2.3-3.5-4.8-3.8-7.9c0-0.4,0.2-1,0.5-1.3c1.7-1.8,3.7-2.9,6.1-3.6
	c4.6-1.2,9.1-0.6,13.5,0.9c8,2.8,14.5,7.8,19.7,14.4c4.4,5.5,7.6,11.6,8.4,18.8C56.2,83.8,56,86.4,55.2,89.1 M0,61.2
	c0.1,6.7,2.1,12.6,5.3,18.1c5.9,10,14.2,17.4,25.3,21.6c5,1.9,10.2,2.6,15.5,1.5c3.7-0.8,6.9-2.5,9.5-5.4c3.4-3.8,4.7-8.4,4.7-13.3
	c0-6.4-2-12.4-5.3-17.9c-6-10.1-14.3-17.5-25.4-21.6c-5.1-1.9-10.4-2.6-15.8-1.3c-3.5,0.8-6.5,2.5-9,5.2c-2.9,3.1-4.2,6.8-4.6,10.9
	C0,59.8,0,60.7,0,61.2"/>
<path class="st0" d="M98.2,19.1c-1.4-3.3-3.6-5.7-6.2-7.8c-4.7-3.6-10-5.5-15.8-6.5c-7.7-1.2-15.3-0.6-22.6,2.2
	c-4,1.5-7.5,3.7-10.5,6.8c-2.6,2.8-4.3,6-4.6,9.9c0,0.7,0.2,1.2,0.7,1.6c2.3,1.9,4.9,2.7,7.8,2.9c5.5,0.4,10.6-1,15.6-3.2
	c3.3-1.4,6.4-3.2,9.6-4.8c8.2-4,16.6-4.6,25.3-1.4C97.7,18.9,97.8,19,98.2,19.1"/>
<path class="st0" d="M40.2,31.3c0.8,1.1,1.5,2.2,2.3,3.1c3.5,4,8,6.6,13.1,8.1c10.6,3.2,20.9,2.8,31-1.8c4.4-2,8.1-4.9,10.6-9
	c1.2-2,1.9-4.1,2-6.5c0-0.7-0.2-1-0.7-1.2c-7.9-3.7-15.9-3.8-23.8-0.1c-3.1,1.4-6,3.2-9.2,4.6c-5.3,2.4-10.9,4-16.8,4
	c-2.7,0-5.4-0.4-7.9-1.4c-0.1,0-0.3-0.1-0.4-0.1C40.3,31.1,40.3,31.2,40.2,31.3"/>
<path class="st0" d="M55.2,89.1c0.9-2.7,1-5.3,0.7-7.9c-0.8-7.1-4-13.2-8.4-18.8c-5.3-6.5-11.7-11.6-19.7-14.4
	c-4.4-1.5-8.9-2.1-13.5-0.9c-2.4,0.6-4.4,1.8-6.1,3.6C7.9,51,7.7,51.6,7.7,52c0.3,3.1,1.7,5.6,3.8,7.9c3.3,3.7,7.5,6.3,12.1,8.1
	c3.4,1.4,6.9,2.4,10.4,3.5c9.3,2.7,16.2,8.3,20.7,16.8C54.8,88.5,55,88.8,55.2,89.1"/>
<path class="st0" d="M4.7,57.5c-0.6,2.9-0.5,5.8,0.1,8.6c1.5,7.3,5.2,13.5,10.2,19c5,5.4,10.8,9.6,17.8,12c4.4,1.5,8.9,2.1,13.5,0.8
	c2.2-0.6,4.1-1.7,5.7-3.3c0.5-0.4,0.5-0.8,0.3-1.4c-3.6-8.9-10-14.9-19.4-17.6c-5.7-1.6-11.3-3.5-16.4-6.5c-4.2-2.5-8-5.6-10.6-9.9
	c-0.3-0.6-0.6-1.1-1-1.7C4.8,57.5,4.7,57.6,4.7,57.5"/>
</svg>
