<?xml version="1.0" encoding="utf-8"?>
<!-- Generator: Adobe Illustrator 19.0.0, SVG Export Plug-In . SVG Version: 6.00 Build 0)  -->
<svg version="1.1" id="Layer_1" xmlns="http://www.w3.org/2000/svg" xmlns:xlink="http://www.w3.org/1999/xlink" x="0px" y="0px"
	 viewBox="0 0 99.6 85" style="enable-background:new 0 0 99.6 85;" xml:space="preserve">
<style type="text/css">
	.st0{fill:#BBE0DE;}
</style>
<path class="st0" d="M20.2,70.2c0.9-0.1,1.9-0.1,2.7-0.4c3.9-1.9,7.7-3.9,11.5-6c1.8-1,2.3-3.2,1.4-5c-1-1.8-3.1-2.6-4.9-1.6
	c-3.9,2-7.8,4-11.6,6.1c-1.4,0.8-2,2.1-1.8,3.7C17.7,68.5,18.7,69.5,20.2,70.2 M22.8,74.1c-0.6,2-0.2,3.3,0.9,4.4
	c1.2,1.1,2.9,1.3,4.3,0.6c3.8-1.9,7.5-3.9,11.3-5.9c1.9-1,2.5-3.2,1.5-5.1c-1-1.8-3.2-2.5-5.1-1.5c-3.7,1.9-7.5,3.8-11.2,5.9
	C23.7,72.9,23.1,73.8,22.8,74.1 M7.3,46.3c0.1,0.1,0.1,0.1,0.2,0.2c-0.5,1.5,0,3,1.2,4c1.3,1.1,2.8,1.3,4.3,0.5
	c3.7-1.9,7.4-3.8,11.1-5.8c2-1,2.6-3.3,1.6-5.1c-1-1.8-3.2-2.5-5.1-1.6c-3.7,1.9-7.5,3.9-11.2,5.9C8.6,44.8,8,45.7,7.3,46.3
	 M31,52.3c0.4-1.6,0-2.9-1.2-3.9c-1.3-1.1-2.7-1.2-4.2-0.5c-3.7,1.9-7.5,3.9-11.2,5.8c-1.9,1-2.6,3.2-1.6,5c1,1.8,3.3,2.6,5.2,1.6
	c3.7-1.9,7.4-3.9,11.1-5.8C30.1,54,30.7,53.3,31,52.3 M73.5,55.1c7.5-3.9,14.9-7.8,22.2-11.6c-3.9-7.3-7.9-14.7-11.9-22.1
	c-0.2,0.1-0.5,0.3-0.9,0.4c-4,2.1-7.9,4.1-11.9,6.2c-2.4,1.3-4.4,1-6.4-0.9c-1.2-1.2-2.5-2.3-3.7-3.5c-2.8-2.7-6.1-3.1-9.5-1.3
	c-5.5,2.9-11.1,5.8-16.6,8.7c-0.2,0.1-0.4,0.2-0.8,0.5c1,0.8,1.8,1.7,2.8,2.4c2.5,1.8,5.1,2.1,7.9,0.5c3.9-2.1,7.8-4.1,11.7-6.1
	c1.6-0.8,2.1-0.7,3,0.9C64,37.5,68.5,45.9,73,54.3C73.2,54.6,73.4,54.9,73.5,55.1 M65.6,62.8c0.9,1.7,1.7,3.3,2.6,4.8
	c0.8,1.4,2.3,2.1,3.8,1.9c1.5-0.2,2.8-1.3,3.1-2.8c0.3-1.1,0-2.1-0.5-3.1c-5.7-10.5-11.3-21-17-31.5c-0.1-0.2-0.3-0.5-0.6-1
	c-0.3,0.2-0.5,0.5-0.8,0.7c-3.5,1.8-6.9,3.6-10.4,5.5c-2.5,1.3-5.2,1.5-7.9,0.5c-2.9-1.1-5.1-3.1-7-5.5c-1-1.4-0.9-2.2,0.6-3
	c4-2.1,8-4.2,12-6.3c0.3-0.2,0.6-0.3,1-0.6c-2.3-0.7-4.3-1.4-6.4-1.9c-2.4-0.7-4.1-2.1-5.2-4.2c-2.1-3.9-4.2-7.9-6.4-11.8
	c-0.2-0.3-0.3-0.6-0.4-0.6c-7.5,3.9-14.9,7.8-22.3,11.7c3.9,7.2,7.9,14.6,11.9,22c1.1-0.6,2.3-1.3,3.5-1.9c2.4-1.1,4.8-0.9,6.9,0.5
	c2.1,1.5,3.1,3.6,3,6.1c-0.1,0.7-0.2,1.4-0.4,2.1c2.1,0.5,3.6,1.7,4.7,3.5c1,1.9,1,3.8,0.4,5.8c4.7,1.9,5.8,4,5.2,9.4
	c0.7,0.3,1.4,0.5,2,0.9c4.6,2.7,4.5,9.2-0.1,11.8c-1.1,0.6-2.3,1.1-3.7,1.8c0.5,0.9,1,1.6,1.4,2.3c1.1,1.9,3.3,2.6,5.2,1.7
	c1.9-1,2.5-3.2,1.5-5.1c-0.4-0.8-0.9-1.5-1.3-2.1c1-0.6,1.8-1.1,2.8-1.6c0.6,1.1,1.2,2.3,1.8,3.3c1.1,2,3.3,2.8,5.2,1.8
	c2-1,2.6-3.2,1.5-5.3c-0.6-1.1-1.2-2.2-1.9-3.3c1-0.5,1.9-0.9,2.9-1.4c0.8,1.5,1.6,3.1,2.5,4.6c1.5,2.6,5.1,2.7,6.6,0.2
	c0.7-1.2,0.7-2.5,0-3.8c-0.8-1.5-1.7-3.1-2.5-4.6C63.8,63.8,64.6,63.3,65.6,62.8 M19.8,73.1c-3.7-1.1-6.4-4.4-5-9.4
	c-4.5-1.3-6.3-5.3-5-9.3c-0.6-0.3-1.2-0.5-1.8-0.8c-2.3-1.3-3.6-3.3-3.6-5.9c0-2.6,1.2-4.7,3.5-6c1.4-0.8,2.9-1.5,4.3-2.3
	c0.3-0.1,0.5-0.3,1-0.6c-0.2-0.3-0.5-0.6-0.6-0.9c-4-7.3-7.9-14.6-11.9-22c-0.9-1.6-0.7-2.2,0.9-3c8-4.2,15.9-8.3,23.9-12.5
	c1.6-0.8,2.2-0.6,3,0.9c2.4,4.5,4.8,8.9,7.2,13.4c0.8,1.4,1.8,2.4,3.4,2.8c2.9,0.8,5.7,1.8,8.6,2.6c0.5,0.1,1,0,1.5-0.1
	c0.8-0.3,1.6-0.8,2.4-1.1c4.1-1.4,7.8-0.7,11.1,2.1c1.4,1.2,2.8,2.6,4.1,3.9c1.1,1,1.6,1.1,2.9,0.4c4.5-2.4,9-4.7,13.6-7.1
	c1.6-0.8,2.2-0.7,3,0.9C90.5,27,94.8,35,99.1,42.9c0.8,1.5,0.7,2.1-0.9,2.9c-7.4,3.9-14.8,7.7-22.1,11.6c-0.3,0.2-0.7,0.3-1.1,0.4
	c0.9,1.7,1.8,3.2,2.6,4.7c1.2,2.4,1.1,4.7-0.3,7c-1.6,2.5-4.6,3.6-7.5,2.8c-0.3-0.1-0.5-0.2-0.9-0.3C68.2,74.3,67,76,64.9,77
	c-2.1,0.9-4.2,0.7-6.3-0.3c-0.8,2-2.1,3.5-4.1,4.2c-2,0.7-4,0.6-5.9-0.5c-1.4,3.2-3.7,4.9-7.3,4.6c-3.6-0.3-5.3-2.9-6.7-5.9
	c-1.8,1-3.5,1.9-5.2,2.7c-4.6,2.3-9.9-0.9-10-5.9C19.4,75,19.6,74.1,19.8,73.1"/>
</svg>
