<svg id="30194713-4caf-4204-9d15-5816d8185999" data-name="Layer 1" xmlns="http://www.w3.org/2000/svg" viewBox="0 0 89.58 229.75"><defs><style>.\39 15f20d3-40d5-431e-bb54-5ddd2671cb34{fill:none;stroke:#bce0de;stroke-linecap:round;stroke-linejoin:round;stroke-width:8px;}</style></defs><title>Untitled-3</title><path class="915f20d3-40d5-431e-bb54-5ddd2671cb34" d="M44.84,225.75"/><path class="915f20d3-40d5-431e-bb54-5ddd2671cb34" d="M44.84,225.75l23.47,0a4.78,4.78,0,0,0,5-4.71l2.64-49h6.2s3.49-.19,3.47-5.19V143.49s-0.1-3.36-4.37-3.41-11.69,0-11.69,0L69.67,28.56S69.41,6.34,44.84,4"/><path class="915f20d3-40d5-431e-bb54-5ddd2671cb34" d="M44.74,225.75l-23.47,0a4.78,4.78,0,0,1-5-4.71l-2.64-49H7.47S4,171.83,4,166.83V143.49s0.1-3.36,4.37-3.41,11.69,0,11.69,0L19.92,28.56S20.18,6.34,44.74,4"/><line class="915f20d3-40d5-431e-bb54-5ddd2671cb34" x1="20.06" y1="140.04" x2="70.28" y2="140.04"/><line class="915f20d3-40d5-431e-bb54-5ddd2671cb34" x1="13.96" y1="172.16" x2="75.91" y2="172.02"/><line class="915f20d3-40d5-431e-bb54-5ddd2671cb34" x1="14.28" y1="4.39" x2="32.08" y2="16.98"/><line class="915f20d3-40d5-431e-bb54-5ddd2671cb34" x1="56.52" y1="20.87" x2="69.29" y2="8.86"/><line class="915f20d3-40d5-431e-bb54-5ddd2671cb34" x1="54.42" y1="36.55" x2="84.21" y2="29.61"/><line class="915f20d3-40d5-431e-bb54-5ddd2671cb34" x1="58.95" y1="56.13" x2="78.93" y2="55.83"/><path class="915f20d3-40d5-431e-bb54-5ddd2671cb34" d="M8.81,35.23"/><line class="915f20d3-40d5-431e-bb54-5ddd2671cb34" x1="8.81" y1="35.23" x2="29.95" y2="38.12"/><line class="915f20d3-40d5-431e-bb54-5ddd2671cb34" x1="4.41" y1="65.16" x2="36.46" y2="65.53"/><line class="915f20d3-40d5-431e-bb54-5ddd2671cb34" x1="48.03" y1="100.67" x2="84.35" y2="100.67"/><line class="915f20d3-40d5-431e-bb54-5ddd2671cb34" x1="54.42" y1="124.26" x2="76.04" y2="124.46"/><line class="915f20d3-40d5-431e-bb54-5ddd2671cb34" x1="4.05" y1="109.25" x2="29.95" y2="109.09"/><line class="915f20d3-40d5-431e-bb54-5ddd2671cb34" x1="13.57" y1="127.21" x2="29.95" y2="127.24"/></svg>