<?xml version="1.0" encoding="utf-8"?>
<!-- Generator: Adobe Illustrator 19.2.0, SVG Export Plug-In . SVG Version: 6.00 Build 0)  -->
<svg version="1.1" xmlns="http://www.w3.org/2000/svg" xmlns:xlink="http://www.w3.org/1999/xlink" x="0px" y="0px"
	 viewBox="0 0 89.6 229.8" style="enable-background:new 0 0 89.6 229.8;" xml:space="preserve">
<style type="text/css">
	.st0{fill:none;stroke:#BCE0DE;stroke-width:8;stroke-linecap:round;stroke-linejoin:round;}
</style>
<g id="Layer_1">
	<title>Untitled-3</title>
	<metadata><?xpacket begin="﻿" id="W5M0MpCehiHzreSzNTczkc9d"?>
<x:xmpmeta xmlns:x="adobe:ns:meta/" x:xmptk="Adobe XMP Core 5.6-c111 79.158366, 2015/09/25-01:12:00        ">
   <rdf:RDF xmlns:rdf="http://www.w3.org/1999/02/22-rdf-syntax-ns#">
      <rdf:Description rdf:about=""
            xmlns:dc="http://purl.org/dc/elements/1.1/">
         <dc:title>
            <rdf:Alt>
               <rdf:li xml:lang="x-default">Untitled-3</rdf:li>
            </rdf:Alt>
         </dc:title>
      </rdf:Description>
   </rdf:RDF>
</x:xmpmeta>
                                                                                                    
                                                                                                    
                                                                                                    
                                                                                                    
                                                                                                    
                                                                                                    
                                                                                                    
                                                                                                    
                                                                                                    
                                                                                                    
                                                                                                    
                                                                                                    
                                                                                                    
                                                                                                    
                                                                                                    
                                                                                                    
                                                                                                    
                                                                                                    
                                                                                                    
                                                                                                    
                           
<?xpacket end="w"?></metadata>
<path class="st0" d="M44.8,225.7"/>
	<path class="st0" d="M8.8,35.2"/>
	<line class="st0" x1="14.3" y1="4.4" x2="32.1" y2="17"/>
	<line class="st0" x1="56.5" y1="20.9" x2="69.3" y2="8.9"/>
	<line class="st0" x1="54.4" y1="36.5" x2="84.2" y2="29.6"/>
	<line class="st0" x1="59" y1="56.1" x2="78.9" y2="55.8"/>
	<line class="st0" x1="8.8" y1="35.2" x2="30" y2="38.1"/>
	<line class="st0" x1="4.4" y1="65.2" x2="36.5" y2="65.5"/>
	<line class="st0" x1="48" y1="100.7" x2="84.3" y2="100.7"/>
	<line class="st0" x1="54.4" y1="124.3" x2="76" y2="124.5"/>
	<line class="st0" x1="4.1" y1="109.2" x2="30" y2="109.1"/>
	<line class="st0" x1="13.6" y1="127.2" x2="30" y2="127.2"/>
	<path class="st0" d="M81.2,140.1c-4.3-0.1-11.7,0-11.7,0l0.1-111.5c0,0-0.3-22.2-24.8-24.6"/>
	<path class="st0" d="M8.4,140.1c4.3-0.1,11.7,0,11.7,0L19.9,28.6c0,0,0.3-22.2,24.8-24.6"/>
</g>
<g id="Layer_2">
	<line class="st0" x1="20.1" y1="140" x2="70.3" y2="140"/>
	<line class="st0" x1="14" y1="172.2" x2="75.9" y2="172"/>
	<path class="st0" d="M44.8,225.7h23.5c2.6,0.1,4.9-1.9,5-4.6c0-0.1,0-0.1,0-0.2l2.6-49h6.2c0,0,3.5-0.2,3.5-5.2v-23.4
		c0,0-0.1-3.4-4.4-3.4"/>
	<path class="st0" d="M44.7,225.7H21.3c-2.6,0.1-4.9-1.9-5-4.6c0-0.1,0-0.1,0-0.2l-2.6-49H7.5c0,0-3.5-0.2-3.5-5.2v-23.3
		c0,0,0.1-3.4,4.4-3.4"/>
</g>
</svg>
