<?xml version="1.0" encoding="utf-8"?>
<!-- Generator: Adobe Illustrator 19.0.0, SVG Export Plug-In . SVG Version: 6.00 Build 0)  -->
<svg version="1.1" id="Layer_1" xmlns="http://www.w3.org/2000/svg" xmlns:xlink="http://www.w3.org/1999/xlink" x="0px" y="0px"
	 viewBox="0 0 38.1 104.1" style="enable-background:new 0 0 38.1 104.1;" xml:space="preserve">
<style type="text/css">
	.st0{fill:#BBE0DE;}
</style>
<path class="st0" d="M4.1,75H34v-6.8H4.1V75z M29.5,79.1h-21c0.4,7,0.7,14,1.1,20.9h18.8C28.8,93.1,29.2,86.1,29.5,79.1 M26.5,43.8
	V27c-0.5,0-0.9,0-1.3,0c-0.4,0-0.9,0-1.3,0c-1.3-0.1-2.1-0.8-2.1-2c0-1.2,0.7-1.9,2-2c0.9-0.1,1.7-0.1,2.6-0.1v-5.6
	c-0.2,0-0.3,0-0.4,0c-1,0.2-1.9,0.4-2.9,0.6c-1.3,0.3-2.4-0.2-2.6-1.3c-0.3-1.2,0.3-2.2,1.8-2.6c1.3-0.3,2.7-0.6,4.2-1
	c-0.1-1-0.2-2-0.4-3.2c-0.4,0.3-0.6,0.5-0.8,0.6c-1.1,0.9-2.2,1-3,0.1c-0.8-0.9-0.7-2.1,0.4-3.1c0.3-0.3,0.8-0.5,1.2-0.8
	c-2.7-2.3-6.2-2.5-8.7-0.8c0.7,0.5,1.5,1,2.1,1.6c1.1,0.8,1.3,1.9,0.7,2.9c-0.7,1-1.8,1.1-3,0.4c-0.9-0.6-1.7-1.2-2.6-1.8
	c-0.8,1.3-1.1,3.1-0.9,5.7c0.8,0.1,1.7,0.3,2.6,0.4c1.4,0.2,2.2,1,2,2.3c-0.1,1.2-1,1.8-2.5,1.7c-0.7-0.1-1.4-0.2-2.2-0.2v8.5
	c1.7,0,3.3,0,4.8,0c1.4,0,2.2,1.1,2,2.3c-0.2,1-0.9,1.6-2.1,1.6c-1.6,0-3.2,0-4.8,0v16.6c1.6,0.2,3.6-0.3,3.7,2
	c0.1,2.4-2.1,2-3.6,2.1v4.4c1.6,0.1,3.5-0.3,3.6,1.9c0.1,2.4-2,2-3.6,2.1v3.8h14.8v-5.2c-0.1-0.1-0.2-0.1-0.3-0.1
	c-1.1,0-2.2,0-3.3,0c-1.5,0-2.3-0.7-2.3-2c0-1.2,0.8-2,2.3-2c1.2,0,2.4,0,3.7,0v-7c-1.2,0-2.4,0-3.6,0c-1.5,0-2.3-0.8-2.3-2
	c0-1.2,0.8-2,2.3-2C24,43.7,25.2,43.8,26.5,43.8 M26.8,3.6c0.4-0.3,0.7-0.6,1.1-0.9c0.9-0.6,1.9-0.5,2.6,0.2c0.7,0.7,0.8,2,0,2.6
	c-1.2,1-1.1,1.9-0.6,3.2c0.4,1,0.5,2.2,0.7,3.4c1.4-0.3,2.8-0.6,4.2-0.9c1.3-0.3,2.3,0.3,2.6,1.4c0.3,1.2-0.3,2.2-1.7,2.5
	c-1.5,0.4-3,0.7-4.5,1.1c-0.3,0.1-0.7,0.4-0.7,0.6c-0.1,2,0,4,0,6.1c0.8,0,1.6,0,2.3,0c1.3,0,2.2,0.8,2.2,2c0,1.1-0.8,1.9-2.1,2
	c-0.7,0-1.5,0-2.3,0v16.9c1.6,0,3.2,0,4.7,0c1.2,0,2,0.6,2.1,1.7c0.2,1.2-0.6,2.2-1.9,2.3c-1.6,0.1-3.2,0-5,0v6.9c1.5,0,3,0.1,3,2.2
	c0,1.2-0.8,1.7-3,1.9v5.3c0.6,0,1.1,0,1.7,0c1.3,0,2.5,0,3.8,0c1.2,0,2,0.8,2,1.9c0,3.7,0,7.4,0,11.1c0,1.1-0.9,1.9-2,1.9
	c-0.8,0-1.5,0-2.5,0c-0.1,1.7-0.2,3.4-0.3,5.1c-0.3,5.9-0.6,11.9-0.9,17.8c-0.1,1.5-0.8,2.2-2.3,2.2c-7.3,0-14.6,0-21.9,0
	c-1.6,0-2.3-0.7-2.4-2.3C5.4,94.6,5,87.4,4.6,80.1c0-0.3-0.1-0.6-0.1-1c-0.8,0-1.6,0-2.4,0C0.8,79,0,78.3,0,77c0-3.6,0-7.2,0-10.7
	c0-1.3,0.8-2.1,2.2-2.1c1.7,0,3.5,0,5.3,0v-3.6c-0.9-0.4-1.8-0.7-2.6-1.1c-0.3-0.2-0.4-0.8-0.4-1.3c0-1.3,0.9-1.8,3-1.9v-4.5
	c-1.5,0-3,0-4.6,0c-1.9,0-2.9-0.6-2.9-2c0-1.3,0.9-2,2.8-2.1c1.5,0,3,0,4.6,0V31.1c-1.8,0-3.6,0-5.4,0c-0.9,0-1.7-0.4-1.9-1.3
	c-0.1-0.6,0-1.5,0.4-2c0.3-0.4,1.1-0.7,1.7-0.7c1.7-0.1,3.4,0,5.1,0V18c-1-0.2-2-0.3-3.1-0.5c-1.5-0.2-2.3-1.1-2.2-2.3
	c0.1-1.2,1.1-1.8,2.5-1.7c0.9,0.1,1.8,0.2,2.8,0.3c0-2.6,0.2-5.1,1.6-7.5C7.9,5.5,6.7,4.7,5.5,3.8C4.4,2.9,4.1,1.9,4.8,0.9
	c0.7-1,1.9-1.1,3-0.3c1.1,0.8,2.2,1.6,3.4,2.3C11.4,3,12,3,12.3,2.9c4.8-3.1,9.6-2.9,14.2,0.6C26.5,3.5,26.6,3.5,26.8,3.6"/>
</svg>
