<?xml version="1.0" encoding="utf-8"?>
<!-- Generator: Adobe Illustrator 19.0.0, SVG Export Plug-In . SVG Version: 6.00 Build 0)  -->
<svg version="1.1" id="Layer_1" xmlns="http://www.w3.org/2000/svg" xmlns:xlink="http://www.w3.org/1999/xlink" x="0px" y="0px"
	 viewBox="0 0 91.4 80.8" style="enable-background:new 0 0 91.4 80.8;" xml:space="preserve">
<style type="text/css">
	.st0{fill:#FFFFFF;}
	.st1{fill:#BBE0DE;}
</style>
<path class="st0" d="M60.6,14.4c-2.7-0.8-5.3-0.8-7.8-0.2c-3.1,0.7-5.9,2.1-8.1,4.5c-0.7,0.8-0.7,1.7,0,2.3c0.7,0.6,1.5,0.5,2.2-0.3
	c3.1-3.1,6.9-4.2,11.3-3.7c1.4,0.2,2.6,0.7,3.5,1.8c0.4,0.5,0.5,1,0.1,1.6C56.1,29,51.1,38,47.3,47.6c-0.1,0.4-0.2,0.9-0.1,1.2
	c1.2,3.5,2.4,7,3.7,10.5c0.3,0.9,0.6,1.8,0.9,2.6c3.1-13.4,8.8-25.8,15.5-37.9c0.6,0.8,1.1,1.4,1.4,2.1c1.3,2.5,1.5,5.2,1.1,7.9
	c-0.2,1.6-0.7,3.2-2.1,4.3c-0.8,0.7-1,1.5-0.4,2.3c0.6,0.7,1.5,0.8,2.2,0.1c0.8-0.8,1.6-1.7,2.1-2.7c1.3-2.5,1.5-5.3,1.1-8.1
	c-0.2-1.5-0.6-3-1-4.4c0.1,0.1,0.3,0.2,0.4,0.3c3.4,2.7,5.2,6.2,5.3,10.5c0.1,1.2,0.6,1.9,1.5,1.9c1,0,1.5-0.7,1.5-2
	c-0.1-6.8-4.7-13.1-11.3-15.4c-0.3-0.1-0.6-0.2-1.1-0.4c1.6-0.5,2.9-0.6,4.3-0.3c4.6,0.8,8.1,4.8,8,9c0,0.9,0.7,1.5,1.5,1.5
	c0.8,0,1.5-0.7,1.5-1.5c0-0.4,0-0.8-0.1-1.2c-0.9-6.5-6.9-11.3-13.4-10.8c-0.7,0-1.4,0.2-2.2,0.3c0.9-3.6,0.3-6.9-2-9.8
	c-0.8-1-1.9-1.9-3-2.6c-0.7-0.5-1.6-0.1-2,0.6c-0.4,0.7-0.2,1.5,0.5,2c0.1,0.1,0.3,0.2,0.5,0.3c2.9,1.8,4.2,6.1,2.8,9.2
	c-0.1-0.3-0.2-0.6-0.3-0.9C62.3,9.2,55.8,4.5,48.9,4.6c-1,0-1.7,0.6-1.7,1.5c0,0.9,0.7,1.5,1.6,1.5c0.6,0,1.3,0.1,1.9,0.2
	C55,8.4,58.2,10.6,60.6,14.4 M41.1,65.9c-2.2,0-4.2,0-6.2,0c-6.5,0.2-13,0.4-19.5,1.4c-3.4,0.5-6.7,1.3-9.7,2.9
	c-3.4,1.8-5.5,4.6-5.7,8.6c-0.1,1.6,0.4,2.1,2,2.1c15.2,0,30.3,0,45.5,0c14,0,28,0,42,0c1.4,0,1.9-0.6,1.9-2c-0.1-3.9-2-6.6-5.3-8.5
	c-3.4-1.9-7.1-2.7-10.9-3.1c-5.7-0.6-11.4-0.9-17.1-1.3c-2.5-0.2-5-0.2-7.5-0.3c-0.4-1.3-0.7-2.6-1.1-4c-2.9-10.2-6.9-19.9-13-28.6
	c-4.2-6.1-9.3-11.4-15.7-15.1c-0.1-0.1-0.3-0.2-0.4-0.3c0.6-1.2,1.6-1.9,2.7-2.5c2.5-1.2,5.1-1.5,7.9-1.1c1.7,0.2,3.2,0.7,4.4,2.1
	c0.7,0.8,1.6,1,2.3,0.4c0.7-0.6,0.7-1.5,0.1-2.3c-0.8-1-1.8-1.7-3-2.3c-2.5-1.1-5.2-1.3-7.8-0.9c-1.5,0.2-2.9,0.6-4.4,1
	c0.1-0.2,0.3-0.4,0.5-0.7c2.7-3.2,6.2-4.9,10.4-5.1c0.5,0,1-0.2,1.4-0.5c0.5-0.4,0.6-1,0.3-1.6C34.6,3.3,34,3,33.3,3
	c-6.9,0-13.4,4.7-15.6,11.4c-0.1,0.3-0.2,0.6-0.4,1c-0.6-1.9-0.6-3.6-0.1-5.3c1.2-4,4.7-6.9,8.4-7.1c1.1,0,1.8-0.6,1.8-1.6
	c0-0.9-0.7-1.5-1.9-1.5c-5.8,0.1-11.3,5.6-11.6,11.5c-0.1,1.4,0.1,2.8,0.1,4.1c-0.4-0.1-0.9-0.2-1.4-0.2C8.1,15,2.3,18.1,0.2,22.1
	c-0.4,0.7-0.2,1.5,0.5,2c0.6,0.5,1.4,0.4,1.9-0.2c0.3-0.3,0.5-0.6,0.7-0.9c1.5-1.8,3.3-3.4,5.6-4.2c1.6-0.6,3.2-0.6,4.9,0
	c-0.1,0.1-0.1,0.1-0.1,0.1c-0.1,0-0.2,0.1-0.4,0.1C7,21.3,3.1,25.6,1.8,32.2c-0.2,0.8-0.2,1.7-0.2,2.5c0,1.1,0.6,1.8,1.5,1.8
	c0.9,0,1.5-0.7,1.6-1.8c0.1-2.7,0.8-5.1,2.3-7.3c1.1-1.7,2.6-3.1,4.5-4.2c-0.8,2.4-0.8,4.7-0.4,7c0.6,3.4,2,6.4,4.6,8.8
	c0.8,0.7,1.7,0.7,2.3,0.1c0.6-0.7,0.5-1.6-0.2-2.3c-3.1-3.1-4.2-6.9-3.8-11.2c0.1-1.3,0.6-2.6,1.7-3.5c0.5-0.4,0.9-0.5,1.6,0
	c4.8,3.8,8.5,8.5,11.6,13.7c4.9,8.1,8.3,16.8,11.1,25.8C40.3,62.9,40.7,64.3,41.1,65.9"/>
<path class="st1" d="M36.2,38c-0.3,0.2-0.4,0.3-0.5,0.4c-1.3,1-1.3,1-0.6,2.4c0.6,1.3,1.3,2.6,1.9,3.9c0.8-0.4,1.6-0.7,2.4-1.1
	C38.3,41.8,37.3,39.9,36.2,38 M38.1,47.6c0.8,1.9,1.5,3.8,2.2,5.7c0.9-0.4,1.8-0.8,2.7-1.2c-0.8-1.9-1.6-3.7-2.4-5.6
	c-0.3,0.1-0.5,0.2-0.7,0.3C39.4,47,38.8,47.2,38.1,47.6 M34.5,35.4c-3.2-4.7-6.9-8.9-11.5-12.3c3.9,4,7.1,8.6,9.9,13.5
	C33.4,36.2,33.9,35.9,34.5,35.4 M41.4,56.2c0.7,2.3,1.4,4.6,2.1,6.9c1-0.4,1.9-0.9,2.8-1.3c-0.8-2.3-1.5-4.6-2.2-6.9
	c-0.8,0.4-1.6,0.7-2.3,1.1C41.7,56,41.6,56.1,41.4,56.2 M45.7,71.9c-1,0.2-2,0.4-2.9,0.6c-0.3-1.3-0.6-2.6-0.9-3.9
	C33.2,69,24.6,69,16,70.2c0.9,1,1,1.8,0.4,2.4c-0.5,0.6-1.3,0.7-1.9,0.3c-0.7-0.5-0.9-1.2-0.4-2.4c-2.5,0.5-4.8,1.1-7,2.4
	c-1,0.6-1.9,1.4-2.7,2.2c-0.7,0.7-1,1.6-1.2,2.6H10c-1-1-1.1-1.8-0.4-2.6c0.6-0.6,1.6-0.6,2.2,0c0.7,0.7,0.6,1.6-0.4,2.5h7.9
	c-1-0.8-1.2-1.7-0.6-2.5c0.6-0.7,1.6-0.7,2.2-0.1c0.7,0.7,0.6,1.6-0.4,2.5h7.9c-1-0.8-1.2-1.6-0.6-2.4c0.5-0.7,1.5-0.8,2.1-0.3
	c0.3,0.3,0.6,0.9,0.6,1.4c0,0.5-0.5,0.9-0.7,1.3h7.8c-1-0.8-1.2-1.6-0.6-2.4c0.5-0.7,1.5-0.8,2.1-0.3c0.3,0.3,0.6,0.9,0.6,1.4
	c0,0.5-0.5,0.9-0.7,1.3h7.8c-1-0.8-1.2-1.6-0.6-2.4c0.5-0.7,1.6-0.9,2.1-0.2c0.3,0.3,0.6,0.9,0.5,1.4c0,0.4-0.5,0.8-0.7,1.2h7.8
	c-1-0.8-1.2-1.7-0.6-2.5c0.5-0.6,1.5-0.8,2.1-0.2c0.3,0.3,0.6,0.9,0.5,1.4c0,0.4-0.5,0.9-0.7,1.2h7.8c-1-0.8-1.2-1.7-0.6-2.5
	c0.5-0.6,1.5-0.8,2.1-0.2c0.3,0.3,0.6,0.9,0.5,1.4c0,0.4-0.5,0.9-0.7,1.2h7.8c-1-0.8-1.2-1.7-0.6-2.5c0.6-0.7,1.6-0.8,2.2-0.1
	c0.3,0.3,0.5,0.7,0.5,1.1c-0.1,0.6-0.4,1.1-0.7,1.6h12.9c-0.5-1-0.9-1.9-1.4-2.6c-1-1.4-2.4-2.2-4-2.8c-4-1.6-8.2-2.1-12.4-2.4
	C65.4,69.5,60.2,69.2,55,69c-1.2-0.1-2.4,0-3.6,0c0.1,0.6,0.2,1.2,0.3,1.8c-1,0.2-2,0.4-2.9,0.6c-0.5-2.2-1-4.4-1.5-6.6
	c-1,0.5-1.9,0.9-2.9,1.3 M41.1,65.9c-0.5-1.6-0.8-2.9-1.2-4.2c-2.8-9-6.2-17.7-11.1-25.8c-3.1-5.2-6.8-9.9-11.6-13.7
	c-0.6-0.5-1-0.4-1.6,0c-1.1,0.9-1.6,2.1-1.7,3.5c-0.5,4.3,0.6,8.1,3.8,11.2c0.7,0.7,0.8,1.6,0.2,2.3c-0.6,0.7-1.5,0.6-2.3-0.1
	c-2.6-2.4-3.9-5.4-4.6-8.8c-0.4-2.3-0.4-4.6,0.4-7c-1.9,1.1-3.4,2.5-4.5,4.2c-1.5,2.2-2.2,4.7-2.3,7.3c0,1.1-0.6,1.8-1.6,1.8
	c-0.9,0-1.5-0.7-1.5-1.8c0-0.8,0.1-1.7,0.2-2.5c1.3-6.6,5.2-11,11.5-13.2c0.1,0,0.2-0.1,0.4-0.1c0,0,0.1-0.1,0.1-0.1
	c-1.7-0.6-3.3-0.6-4.9,0c-2.3,0.8-4,2.4-5.6,4.2c-0.2,0.3-0.5,0.6-0.7,0.9c-0.6,0.6-1.3,0.6-1.9,0.2c-0.6-0.5-0.8-1.3-0.5-2
	c2.1-4,7.9-7.2,12.4-6.7c0.5,0,1,0.2,1.4,0.2c0-1.4-0.2-2.7-0.1-4.1c0.4-6,5.9-11.4,11.6-11.5c1.2,0,1.9,0.5,1.9,1.5
	c0,0.9-0.7,1.5-1.8,1.6c-3.8,0.2-7.3,3.1-8.4,7.1c-0.5,1.7-0.5,3.4,0.1,5.3c0.2-0.4,0.3-0.7,0.4-1C19.9,7.7,26.4,3,33.3,3
	c0.7,0,1.3,0.2,1.6,0.9c0.3,0.6,0.2,1.2-0.3,1.6c-0.4,0.3-0.9,0.5-1.4,0.5c-4.2,0.2-7.7,1.9-10.4,5.1c-0.2,0.2-0.4,0.5-0.5,0.7
	c1.5-0.3,2.9-0.8,4.4-1c2.7-0.3,5.3-0.1,7.8,0.9c1.2,0.5,2.2,1.2,3,2.3c0.6,0.8,0.6,1.7-0.1,2.3c-0.7,0.6-1.6,0.4-2.3-0.4
	c-1.1-1.4-2.7-1.8-4.4-2.1c-2.7-0.4-5.4-0.1-7.9,1.1c-1.1,0.6-2.1,1.3-2.7,2.5c0.2,0.1,0.3,0.2,0.4,0.3c6.5,3.8,11.5,9,15.7,15.1
	c6.1,8.8,10,18.5,13,28.6c0.4,1.3,0.7,2.6,1.1,4c2.5,0.1,5,0.2,7.5,0.3c5.7,0.4,11.4,0.7,17.1,1.3c3.8,0.4,7.5,1.2,10.9,3.1
	c3.3,1.8,5.2,4.6,5.3,8.5c0,1.4-0.5,2-1.9,2c-14,0-28,0-42,0c-15.2,0-30.3,0-45.5,0c-1.6,0-2.1-0.5-2-2.1c0.2-4,2.2-6.8,5.7-8.6
	c3-1.6,6.4-2.4,9.7-2.9c6.5-1,13-1.2,19.5-1.4C36.9,65.8,38.9,65.9,41.1,65.9"/>
<path class="st1" d="M64.3,23c0-0.1-0.1-0.1-0.1-0.2c-0.2,0.1-0.5,0.2-0.6,0.3c-0.2,0.3-0.4,0.6-0.6,1c-4.8,7.5-9,15.3-12.4,23.5
	c-0.1,0.2-0.3,0.5-0.2,0.7c0.3,1,0.8,2,1.2,3.1C54.9,41.4,59.3,32.1,64.3,23 M60.6,14.4c-2.4-3.8-5.6-6-9.8-6.6
	c-0.6-0.1-1.3-0.1-1.9-0.2c-1,0-1.6-0.7-1.6-1.5c0-0.9,0.7-1.5,1.7-1.5C55.8,4.5,62.3,9.2,64.6,16c0.1,0.3,0.2,0.6,0.3,0.9
	c1.3-3.1,0-7.4-2.8-9.2c-0.1-0.1-0.3-0.2-0.5-0.3c-0.7-0.5-0.9-1.3-0.5-2c0.4-0.7,1.3-1.1,2-0.6c1.1,0.8,2.2,1.6,3,2.6
	c2.3,2.9,2.9,6.1,2,9.8c0.7-0.1,1.5-0.2,2.2-0.3c6.5-0.4,12.5,4.4,13.4,10.8c0.1,0.4,0.1,0.8,0.1,1.2c0,0.9-0.7,1.5-1.5,1.5
	c-0.8,0-1.5-0.6-1.5-1.5c0-4.1-3.5-8.1-8-9c-1.4-0.3-2.8-0.2-4.3,0.3c0.5,0.2,0.8,0.3,1.1,0.4c6.6,2.3,11.2,8.6,11.3,15.4
	c0,1.2-0.5,2-1.5,2c-0.9,0-1.5-0.7-1.5-1.9c-0.2-4.3-2-7.8-5.3-10.5c-0.2-0.1-0.3-0.2-0.4-0.3c0.3,1.5,0.8,2.9,1,4.4
	c0.3,2.8,0.2,5.6-1.1,8.1c-0.5,1-1.3,1.9-2.1,2.7c-0.7,0.7-1.7,0.6-2.2-0.1c-0.6-0.7-0.4-1.6,0.4-2.3c1.4-1.1,1.8-2.7,2.1-4.3
	c0.4-2.7,0.2-5.4-1.1-7.9c-0.4-0.7-0.9-1.3-1.4-2.1c-6.7,12.1-12.4,24.5-15.5,37.9c-0.3-0.9-0.6-1.8-0.9-2.6
	c-1.2-3.5-2.5-7-3.7-10.5c-0.1-0.4-0.1-0.9,0.1-1.2C51.1,38,56.1,29,61.8,20.4c0.4-0.7,0.3-1.1-0.1-1.6c-0.9-1.2-2.1-1.7-3.5-1.8
	c-4.3-0.5-8.1,0.6-11.3,3.7c-0.7,0.7-1.6,0.8-2.2,0.3c-0.7-0.6-0.7-1.5,0-2.3c2.2-2.4,5-3.8,8.1-4.5C55.3,13.6,57.9,13.6,60.6,14.4"
	/>
<path class="st0" d="M43.1,52c-0.9,0.4-1.8,0.8-2.7,1.2c-0.8-1.9-1.5-3.8-2.2-5.7c0.7-0.3,1.3-0.6,1.9-0.9c0.2-0.1,0.4-0.2,0.7-0.3"
	/>
<path class="st1" d="M70.1,70.1c0.8,0,1.5,0.7,1.5,1.5c0,0.8-0.7,1.6-1.5,1.5c-0.8,0-1.5-0.7-1.5-1.5C68.6,70.8,69.3,70.1,70.1,70.1
	"/>
<path class="st1" d="M60.9,73.2c-0.8,0-1.5-0.8-1.5-1.6c0-0.8,0.7-1.5,1.6-1.4c0.8,0,1.5,0.8,1.5,1.6C62.4,72.5,61.7,73.2,60.9,73.2
	"/>
<path class="st1" d="M35,71.7c0,0.8-0.7,1.5-1.6,1.5c-0.8,0-1.5-0.7-1.5-1.5c0-0.9,0.7-1.5,1.6-1.5C34.4,70.1,35,70.8,35,71.7"/>
<path class="st1" d="M24.4,73.2c-0.8,0-1.5-0.7-1.5-1.5c0-0.8,0.7-1.6,1.5-1.6s1.5,0.7,1.5,1.6C25.9,72.5,25.2,73.2,24.4,73.2"/>
</svg>
