<?xml version="1.0" encoding="utf-8"?>
<!-- Generator: Adobe Illustrator 19.0.0, SVG Export Plug-In . SVG Version: 6.00 Build 0)  -->
<svg version="1.1" id="Layer_1" xmlns="http://www.w3.org/2000/svg" xmlns:xlink="http://www.w3.org/1999/xlink" x="0px" y="0px"
	 viewBox="0 0 100.2 93.3" style="enable-background:new 0 0 100.2 93.3;" xml:space="preserve">
<style type="text/css">
	.st0{fill:#FFFFFF;}
	.st1{fill:#BBE0DE;}
	.st2{fill:none;}
</style>
<path class="st0" d="M59.7,55c1.3,0.9,2.5,1.8,3.8,2.6c0.5,0.3,0.7,0.7,0.6,1.3c-0.8,4.5-1.7,8.9-2.4,13.4
	c-0.9,5.7-0.1,11.2,3.3,16.1c3.3,4.9,8.3,6.2,13.6,3.5c5.3-2.6,8.7-6.9,10.7-12.4c3.4-9.5,6.7-19.1,10-28.7
	c1.3-3.8,1.2-7.6-0.2-11.4c-3.7-10.3-15.8-14.3-24.9-8.2c-0.5,0.3-0.8,0.3-1.3,0c-4.7-3.3-9.5-6.5-14.2-9.8
	c-0.5-0.3-0.6-0.6-0.5-1.2c0.9-4.2,0.4-8.2-1.7-11.9c-5-9-17.3-11.3-25.4-4.6C23.3,10.4,15.5,17,7.7,23.6c-4,3.5-6.6,7.9-7.5,13.2
	c-0.5,2.6-0.3,5.2,1,7.6c1.6,3.1,4.4,4.6,7.7,5.2c5.8,1.1,11.1-0.2,16.1-3.2c3.7-2.2,7.4-4.5,11.2-6.7c0.3-0.2,0.8-0.3,1-0.1
	c1.4,0.9,2.7,1.8,4.1,2.8c-1.2,2.6-1.7,5.3-0.8,8.2c0.9,2.8,2.6,5,5.1,6.5C50,59.6,55.5,59.6,59.7,55"/>
<path class="st1" d="M44.4,49c0.9,4.2,4.5,6.5,8.7,5.5c4.2-0.9,6.4-4.5,5.5-8.7c-0.9-4.2-4.5-6.5-8.7-5.5
	C45.7,41.2,43.4,44.7,44.4,49 M62,51.6c1.8,1.2,3.6,2.5,5.5,3.7c0.9,0.6,1.2,1.4,1,2.4c-0.6,3.6-1.3,7.2-1.9,10.7
	c-0.6,3.2-1.3,6.4-1.1,9.7c0.2,3,0.9,5.8,2.8,8.2c2,2.6,4.7,3.5,7.8,2.5c1.3-0.5,2.6-1.2,3.7-2.1c2.7-2.1,4.4-5,5.6-8.2
	c3.4-9.7,6.8-19.5,10.2-29.2c1.1-3.1,1-6.2-0.3-9.2c-2.8-6.8-13.2-10.4-19.9-4.4c-1.2,1.1-1.9,1.1-3.2,0.2
	c-5.7-3.9-11.5-7.9-17.2-11.8c-1.4-1-1.6-1.6-1.1-3.3c1.1-3,1.1-5.9-0.2-8.8c-2.2-4.8-5.7-7.8-11.2-8c-3.6-0.2-6.6,1.3-9.3,3.6
	C27,12.7,20.8,17.9,14.6,23.2c-1.8,1.5-3.6,3-5.3,4.6C6.8,30.2,5,33,4.2,36.4c-0.4,1.8-0.4,3.7,0.3,5.4c1.3,2.8,3.7,3.9,6.6,4.2
	c3.8,0.4,7.3-0.6,10.6-2.5c4.6-2.6,9.1-5.4,13.6-8.2c1.3-0.8,2.3-0.8,3.5,0.1c1.6,1.2,3.4,2.3,5,3.5c4.7-4.2,10-3.5,13.7-1.2
	C62.2,40.9,63.6,45.1,62,51.6 M59.7,55c-4.3,4.5-9.8,4.6-14.1,2c-2.5-1.5-4.3-3.6-5.1-6.5c-0.8-2.8-0.4-5.5,0.8-8.2
	c-1.4-1-2.7-1.9-4.1-2.8c-0.2-0.1-0.7,0-1,0.1c-3.7,2.2-7.4,4.5-11.2,6.7c-5,3-10.4,4.3-16.1,3.2c-3.3-0.6-6-2.1-7.7-5.2
	c-1.3-2.4-1.4-5-1-7.6c0.9-5.3,3.5-9.7,7.5-13.2C15.5,17,23.3,10.4,31.1,3.9c8.1-6.7,20.4-4.4,25.4,4.6c2.1,3.7,2.6,7.7,1.7,11.9
	c-0.1,0.6,0,0.9,0.5,1.2c4.8,3.2,9.5,6.5,14.2,9.8c0.5,0.3,0.8,0.3,1.3,0c9.1-6.1,21.2-2.1,24.9,8.2c1.4,3.8,1.5,7.6,0.2,11.4
	c-3.3,9.6-6.6,19.2-10,28.7c-2,5.4-5.4,9.7-10.7,12.4c-5.3,2.6-10.3,1.3-13.6-3.5c-3.3-4.9-4.2-10.4-3.3-16.1
	c0.7-4.5,1.6-8.9,2.4-13.4c0.1-0.6,0-1-0.6-1.3C62.2,56.8,61,55.9,59.7,55"/>
<path class="st1" d="M78.1,53.5c-0.9-0.6-1.8-1.3-2.7-1.9c-1.1-0.8-1.4-2-0.7-3c0.7-1,1.9-1.2,3-0.4c0.9,0.6,1.8,1.2,2.8,1.9
	c0.6-0.9,1.3-1.8,1.9-2.7c0.8-1.2,2-1.5,3-0.8c1,0.7,1.1,1.9,0.3,3.1c-0.6,0.9-1.2,1.8-1.8,2.7c0.9,0.7,1.8,1.3,2.7,1.9
	c1.2,0.8,1.5,2,0.7,3c-0.7,1-1.9,1.1-3,0.4c-0.9-0.6-1.8-1.2-2.7-1.8c0,0,0,0-0.1-0.1c-0.6,0.9-1.2,1.8-1.8,2.7
	c-0.8,1.2-2,1.5-3,0.8c-1-0.7-1.2-1.9-0.3-3.1c0.6-0.8,1.1-1.7,1.7-2.5C78,53.7,78,53.7,78.1,53.5"/>
<path class="st1" d="M41.5,26.8c0.3,1.1-0.4,2.3-1.6,2.6c-1.1,0.3-2.3-0.4-2.6-1.6c-0.3-1.2,0.4-2.3,1.6-2.6
	C40.1,25,41.2,25.7,41.5,26.8"/>
<path class="st1" d="M45.5,21.3c-1.2,0.3-2.3-0.4-2.6-1.6c-0.3-1.1,0.5-2.3,1.6-2.6c1.1-0.3,2.3,0.4,2.6,1.6
	C47.3,19.9,46.6,21.1,45.5,21.3"/>
<path class="st1" d="M35.5,11c1.2-0.3,2.3,0.4,2.5,1.6c0.3,1.2-0.4,2.3-1.6,2.6c-1.1,0.3-2.3-0.5-2.6-1.6
	C33.6,12.4,34.4,11.3,35.5,11"/>
<path class="st1" d="M30.9,23.2c-1.2,0.3-2.3-0.5-2.5-1.6c-0.2-1.2,0.5-2.3,1.6-2.5c1.1-0.2,2.3,0.5,2.5,1.7
	C32.8,21.9,32,23,30.9,23.2"/>
<rect x="-461" y="-1307.8" class="st2" width="600" height="3000"/>
</svg>
