<?xml version="1.0" encoding="utf-8"?>
<!-- Generator: Adobe Illustrator 19.0.0, SVG Export Plug-In . SVG Version: 6.00 Build 0)  -->
<svg version="1.1" xmlns="http://www.w3.org/2000/svg" xmlns:xlink="http://www.w3.org/1999/xlink" x="0px" y="0px"
	 viewBox="0 0 125.7 40.5" style="enable-background:new 0 0 125.7 40.5;" xml:space="preserve">
<style type="text/css">
	.st0{fill:#FFFFFF;}
</style>
<g id="Layer_2">
</g>
<g id="Layer_1">
	<g id="XMLID_290_">
		<path id="XMLID_291_" class="st0" d="M3.6,19.9c-0.1-0.2,0-0.4,0.2-0.5L4.5,19c0.2-0.1,0.4,0,0.5,0.2l2.9,5.4l7.5-4l-2.9-5.4
			c-0.1-0.2,0-0.4,0.2-0.5l0.7-0.4c0.2-0.1,0.4,0,0.5,0.2l6.6,12.3c0.1,0.2,0,0.4-0.2,0.5l-0.7,0.4c-0.2,0.1-0.4,0-0.5-0.2l-3-5.6
			l-7.5,4l3,5.6c0.1,0.2,0,0.4-0.2,0.5l-0.7,0.4c-0.2,0.1-0.4,0-0.5-0.2L3.6,19.9z"/>
	</g>
	<g id="XMLID_286_">
		<path id="XMLID_287_" class="st0" d="M26.1,9.1c4-1.3,8.2,0.8,9.5,4.8c1.3,4-0.8,8.2-4.8,9.5c-4,1.3-8.2-0.8-9.5-4.8
			S22.1,10.4,26.1,9.1z M30.3,22.1c3.2-1,4.9-4.5,3.9-7.7c-1-3.2-4.5-4.9-7.7-3.9c-3.2,1-4.9,4.5-3.9,7.7
			C23.7,21.4,27.2,23.1,30.3,22.1z"/>
	</g>
	<g id="XMLID_283_">
		<path id="XMLID_284_" class="st0" d="M37.6,6.4c-0.1-0.3,0-0.5,0.3-0.6l0.9-0.1c0.2,0,0.4,0.1,0.4,0.2l4.4,10.4l0.1,0l1.9-11.5
			c0-0.1,0.1-0.3,0.3-0.3l0.4-0.1c0.2,0,0.3,0.1,0.4,0.2l5.1,10.5l0.1,0L53.2,4c0-0.2,0.2-0.3,0.3-0.3l0.9-0.1
			c0.3,0,0.5,0.1,0.4,0.4l-1.9,14.5c0,0.2-0.2,0.3-0.3,0.3l-0.3,0c-0.1,0-0.3-0.1-0.4-0.2L46.6,8l-0.1,0l-1.9,11.7
			c0,0.1-0.2,0.3-0.3,0.3l-0.3,0c-0.2,0-0.3-0.1-0.4-0.2L37.6,6.4z"/>
	</g>
	<g id="XMLID_280_">
		<path id="XMLID_281_" class="st0" d="M67.3,5.3l-3.6-0.2c-0.2,0-0.4-0.2-0.4-0.4l0-0.6c0-0.2,0.2-0.4,0.4-0.4l8.9,0.5
			c0.2,0,0.4,0.2,0.4,0.4l0,0.6c0,0.2-0.2,0.4-0.4,0.4l-3.6-0.2l-0.8,12.9c0,0.2-0.2,0.4-0.4,0.4l-0.8,0c-0.2,0-0.4-0.2-0.4-0.4
			L67.3,5.3z"/>
	</g>
	<g id="XMLID_276_">
		<path id="XMLID_277_" class="st0" d="M83.6,5.8c4.1,0.9,6.7,4.9,5.8,9s-4.9,6.7-9,5.8s-6.7-4.8-5.8-8.9
			C75.6,7.5,79.5,4.9,83.6,5.8z M80.8,19.2c3.3,0.7,6.5-1.4,7.2-4.7c0.7-3.3-1.4-6.5-4.7-7.2c-3.3-0.7-6.5,1.4-7.2,4.7
			C75.4,15.2,77.5,18.5,80.8,19.2z"/>
	</g>
	<g id="XMLID_271_">
		<path id="XMLID_272_" class="st0" d="M105.2,20.8c0.8,0.9,1.7,2.4,0.9,4.1c-0.9,2.2-3.3,3-5.7,2l-4.5-2c-0.2-0.1-0.3-0.3-0.2-0.5
			l5.5-12.8c0.1-0.2,0.3-0.3,0.5-0.2l4.3,1.8c2.4,1,3.3,3.2,2.4,5.2C107.8,20,106.4,20.6,105.2,20.8L105.2,20.8z M101,25.5
			c1.6,0.7,3,0,3.6-1.4c0.6-1.4-0.1-2.9-1.6-3.5l-3.3-1.4l-2.1,4.8L101,25.5z M103.2,19.2c1.6,0.7,3,0,3.6-1.3
			c0.6-1.4,0.1-2.7-1.5-3.4l-2.9-1.3l-2,4.7L103.2,19.2z"/>
	</g>
	<g id="XMLID_268_">
		<path id="XMLID_269_" class="st0" d="M115,18c0.1-0.2,0.4-0.3,0.5-0.1l7,4.3c0.2,0.1,0.2,0.4,0.1,0.5l-0.3,0.5
			c-0.1,0.2-0.4,0.3-0.5,0.1l-6-3.7l-2.7,4.4l5.1,3.2c0.2,0.1,0.2,0.4,0.1,0.5l-0.3,0.5c-0.1,0.2-0.4,0.2-0.5,0.1l-5.1-3.2l-2.8,4.6
			l6,3.7c0.2,0.1,0.2,0.4,0.1,0.5l-0.3,0.5c-0.1,0.2-0.4,0.3-0.5,0.1l-7-4.3c-0.2-0.1-0.2-0.4-0.1-0.5L115,18z"/>
	</g>
</g>
</svg>
