<?xml version="1.0" encoding="utf-8"?>
<!-- Generator: Adobe Illustrator 19.0.0, SVG Export Plug-In . SVG Version: 6.00 Build 0)  -->
<svg version="1.1" id="Layer_1" xmlns="http://www.w3.org/2000/svg" xmlns:xlink="http://www.w3.org/1999/xlink" x="0px" y="0px"
	 viewBox="0 0 86.7 86.8" style="enable-background:new 0 0 86.7 86.8;" xml:space="preserve">
<style type="text/css">
	.st0{fill:#BBE0DE;}
</style>
<path class="st0" d="M40.9,82.5c13.9-8.7,27.8-17.3,41.6-26c-1.4-2.3-2.9-4.6-4.3-6.9c-13.9,8.7-27.7,17.3-41.6,26
	C38,77.9,39.4,80.2,40.9,82.5 M76.4,46.7c-0.2-0.3-0.3-0.5-0.4-0.7c-2.5-4.1-5.1-8.1-7.6-12.1c-1-1.6-2-3.1-2.9-4.7
	c-0.5-0.9-0.5-1.5,0.2-2.3c0.3-0.3,0.6-0.6,0.9-1c4.3-5.3,4.3-12.9-0.1-17.7c-5.4-6-14.2-6.4-20.2-0.9c-1.2,1.1-1.5,1.1-2.8,0.2
	C32.9,0.9,18.4,5.4,14.6,18.3c-0.8,2.6-0.9,5.2-0.6,7.9c0.1,1.2-0.3,1.8-1.3,2.2c-1.8,0.7-3.4,1.7-4.8,3c-4.7,4.3-5.8,11.5-2.6,17
	c3.2,5.5,9.9,8,16,6c1.3-0.4,1.9-0.2,2.6,1C27.4,61,30.8,66.5,34.3,72c0.1,0.2,0.3,0.4,0.4,0.7C48.6,64,62.5,55.4,76.4,46.7
	 M63.5,72.5c-7.3,4.6-14.7,9.2-22,13.7c-1.4,0.9-2.1,0.7-3-0.7c-5.6-8.9-11.1-17.8-16.7-26.7c-0.3-0.5-0.6-0.6-1.1-0.5
	c-7.5,1.7-15.3-2-18.8-8.9C-1.9,42,0.1,33,6.6,27.9c1-0.8,2.2-1.4,3.3-2.1c0.4-0.2,0.6-0.5,0.5-0.9c-0.3-7.1,2-13.2,7.2-18
	C24.7,0.3,35-0.9,43.5,3.6c0.8,0.4,1.2,0.5,2-0.1C52.2-1.6,61.9-1,67.9,4.8c6.2,6,7,15.7,1.8,22.8c-0.4,0.6-0.4,1-0.1,1.6
	c5.5,8.8,11.1,17.7,16.6,26.5c0.9,1.4,0.7,2.2-0.7,3.1C78.1,63.3,70.8,67.9,63.5,72.5"/>
</svg>
