<?xml version="1.0" encoding="utf-8"?>
<!-- Generator: Adobe Illustrator 19.0.0, SVG Export Plug-In . SVG Version: 6.00 Build 0)  -->
<svg version="1.1" id="Layer_1" xmlns="http://www.w3.org/2000/svg" xmlns:xlink="http://www.w3.org/1999/xlink" x="0px" y="0px"
	 viewBox="0 0 181.5 28" style="enable-background:new 0 0 181.5 28;" xml:space="preserve">
<style type="text/css">
	.st0{fill:none;stroke:#FFFFFF;stroke-width:2;stroke-linecap:round;stroke-linejoin:round;}
</style>
<path class="st0" d="M166.4,27c7.8,0,14-5.8,14-13c0-7.2-6.3-13-14-13L159,1l0,25.9L166.4,27z M122.9,23.2c-2.4,2.3-5.7,3.8-9.3,3.8
	c-7.3,0-13.2-5.8-13.2-13c0-7.2,5.9-13,13.2-13c3.6,0,6.8,1.4,9.2,3.7 M151.2,14h-20.7 M151.2,1h-20.7v25.9h20.7 M92.9,1v25.9
	 M73.4,26.9V1 M60,1h27.2 M34,14c0-7.2,5.9-13,13.2-13c7.3,0,13.2,5.8,13.2,13c0,7.2-5.9,13-13.2,13C39.9,26.9,34,21.1,34,14z
	 M1,26.7V1L28.2,27V1"/>
</svg>
