<?xml version="1.0" encoding="utf-8"?>
<!-- Generator: Adobe Illustrator 19.0.0, SVG Export Plug-In . SVG Version: 6.00 Build 0)  -->
<svg version="1.1" id="Layer_1" xmlns="http://www.w3.org/2000/svg" xmlns:xlink="http://www.w3.org/1999/xlink" x="0px" y="0px"
	 viewBox="0 0 74.9 78.7" style="enable-background:new 0 0 74.9 78.7;" xml:space="preserve">
<style type="text/css">
	.st0{fill:#FFFFFF;}
	.st1{fill:#BBE0DE;}
</style>
<path class="st0" d="M20.2,16.5c-0.1-0.1-0.1-0.1-0.1-0.1c-0.1-0.2-0.1-0.3-0.2-0.5c-0.5-1.3-1.3-2.3-2.4-3.1
	c-1.7-1.2-3.5-1.1-5.3-0.1c-2.7,1.5-4.5,3.8-5.7,6.5c-2.3,5.1-2,10.1,1,14.8c0.2,0.4,0.2,0.5-0.1,0.9c-2,2-3.9,4.1-5.5,6.5
	c-1.6,2.4-2.3,5-1.8,7.9c0.5,2.7,1.7,5,3.3,7.2c3.2,4.3,7.4,7.7,11.9,10.6c2.9,1.9,5.8,3.6,8.8,5.3c3.8,2.1,7.8,3.9,11.9,5.1
	c3.2,0.9,6.4,1.5,9.7,1.2c4.8-0.4,8.1-2.9,9.9-7.4c0.9-2.3,1.6-4.7,2.4-7c0.1-0.4,0.3-0.6,0.8-0.6c2,0.2,4-0.1,5.9-0.8
	c3.4-1.3,6-3.6,7.9-6.7c1.3-2.1,2.1-4.4,2.1-6.9c0-3.6-2.3-5.3-5.3-5.4c-0.6,0-1.1,0.1-1.8,0.1c0-0.2,0.1-0.3,0.1-0.5
	c1-2.7,1.7-5.6,2-8.5c0.6-6-0.5-11.5-4.1-16.3c-0.5-0.6-0.6-1.1-0.2-1.9c2.3-5.5,0.1-12.7-6-15.6c-3.7-1.7-7.3-1.6-10.9,0.2
	c-1.7,0.8-3,2-4.1,3.5c-0.2,0.3-0.4,0.6-0.9,0.5C37,4.7,31.3,6.7,26.1,10.7C23.9,12.4,22,14.3,20.2,16.5"/>
<path class="st1" d="M62.4,14.6c-0.6-3.3-2.3-5.9-5.2-7.6c-2.8-1.6-5.8-1.8-8.9-0.7C53.5,8.3,58.1,11,62.4,14.6 M63.8,16.1
	c1.3-2.6,1.2-6.7-1-9.8c-2.5-3.5-6-4.9-10.2-4.3c-2.6,0.4-5.9,2.5-6.3,3.9c4-1.9,7.9-2,11.6,0.2C61.6,8.3,63.5,11.7,63.8,16.1
	 M58.9,61.7c0.3,0,0.5,0,0.8,0c6.4,0.1,11.1-4.4,12.8-9.5c0.4-1.2,0.6-2.4,0.5-3.7c-0.1-1.4-0.8-2.2-2.1-2.7
	c-1.3-0.4-2.5-0.3-3.7,0.3c-0.3,0.1-0.6,0.4-0.7,0.7c-0.9,1.3-1.5,2.8-2.5,4C61.3,54,60.1,57.8,58.9,61.7 M9.2,33.1
	c0.8-0.9,1.6-1.7,2.3-2.5c1.5-1.7,3-3.4,3.8-5.5c0.8-2.1,1.8-4.1,3-5.9c0.1-0.2,0.2-0.4,0.2-0.6c0-1.3-0.4-2.4-1.2-3.4
	c-1.2-1.3-2.4-1.6-4-0.8c-0.6,0.3-1.2,0.7-1.7,1.2c-3,2.7-4.6,6.2-4.7,10.2C6.9,28.4,7.7,30.8,9.2,33.1 M25.1,62.6
	c3.8,2.2,7.8,4.2,12.1,5.3c1.9,0.5,3.9,0.8,5.8,0.9c5.3,0.2,9-2.5,10.7-7.7c1.1-3.4,1.3-6.8,1-10.3c0-0.5,0.1-0.9,0.5-1.2
	c2.4-1.7,4.5-3.7,6.2-6.1c1.4-2.1,2.4-4.4,2.6-6.9c0.1-2-0.5-3.8-1.9-5.1c-1-0.9-2.1-1.7-3.3-2.3c-2.1-1-4.3-1.8-6.5-2.7
	c-2.2-0.9-4.5-1.6-6.4-3.1c-1.6-1.2-3.1-2.5-4.6-3.7c-1.9-1.6-3.9-3.2-6.2-4.2c-2.6-1.1-5-1-7.3,0.8c-1.6,1.2-2.8,2.8-3.7,4.5
	c-1.5,2.8-2.3,5.9-2.6,9c-0.1,0.6-0.3,1-0.9,1.2c-3.2,1.5-6.1,3.5-8.5,6.2c-3.4,3.9-3.9,8.4-1.2,12.8c0.8,1.4,1.8,2.7,2.9,3.8
	C17,57.5,21,60.2,25.1,62.6 M20.2,16.5c1.7-2.1,3.7-4.1,5.8-5.7c5.2-4,11-6,17.5-5.3c0.5,0.1,0.7-0.2,0.9-0.5
	c1.1-1.5,2.5-2.7,4.1-3.5c3.6-1.8,7.3-1.9,10.9-0.2c6.1,2.9,8.3,10.1,6,15.6c-0.3,0.7-0.2,1.2,0.2,1.9c3.7,4.8,4.7,10.3,4.1,16.3
	c-0.3,2.9-1,5.7-2,8.5c-0.1,0.1-0.1,0.3-0.1,0.5c0.6,0,1.2-0.1,1.8-0.1c3,0.1,5.4,1.8,5.3,5.4c0,2.5-0.8,4.8-2.1,6.9
	c-1.9,3.1-4.5,5.4-7.9,6.7c-1.9,0.7-3.9,1-5.9,0.8c-0.5,0-0.6,0.1-0.8,0.6c-0.8,2.3-1.5,4.7-2.4,7c-1.8,4.5-5.1,7-9.9,7.4
	c-3.3,0.3-6.6-0.3-9.7-1.2c-4.2-1.2-8.1-3-11.9-5.1c-3-1.7-6-3.4-8.8-5.3c-4.5-2.9-8.6-6.3-11.9-10.6c-1.6-2.2-2.9-4.5-3.3-7.2
	c-0.5-2.9,0.2-5.5,1.8-7.9C3.6,39,5.5,37,7.5,34.9c0.3-0.3,0.3-0.5,0.1-0.9c-3.1-4.7-3.4-9.6-1-14.8c1.2-2.7,3-5,5.7-6.5
	c1.8-1,3.6-1.1,5.3,0.1c1.1,0.8,1.9,1.8,2.4,3.1c0.1,0.2,0.1,0.3,0.2,0.5C20.1,16.4,20.1,16.4,20.2,16.5"/>
<path class="st1" d="M49.3,60.1C49,60,48.8,60,48.7,59.9c-1.5-0.3-2.9-0.6-4.4-1c-0.4-0.1-0.7,0-1,0.3c-0.6,0.8-1.3,1.4-2.2,1.6
	c-1.1,0.3-2.1-0.2-2.3-1.3c-0.1-0.6,0-1.3,0-2c0.1-0.4,0-0.5-0.4-0.7c-2.1-1-4.2-2-6.3-3.1c-2.7-1.5-5.3-3.2-7.7-5.1
	c-0.4-0.3-0.6-0.3-1,0.1c-0.4,0.4-0.9,0.8-1.5,1c-1.3,0.6-2.5-0.1-2.7-1.5c-0.2-1,0.1-2,0.5-2.9c0.2-0.4,0.2-0.6-0.1-0.9
	c-1.3-1.5-2.5-2.9-3.8-4.4c-0.1-0.1-0.2-0.2-0.3-0.3c-0.8,1-1,2.1-0.8,3.3c0.3,1.8,1.3,3.2,2.4,4.5c2.6,3.2,5.9,5.6,9.3,7.9
	c2.9,1.9,6,3.4,9.2,4.6c2.4,0.9,4.8,1.7,7.4,1.9c1.4,0.1,2.8,0.1,4.2-0.5C48.1,61.4,48.8,60.9,49.3,60.1 M20.8,38.5
	c-1.8-1-2.9-0.9-4.1,0.2c-0.3,0.3-0.4,0.5-0.1,0.8c1.4,1.6,2.7,3.2,4.1,4.7c0.6,0.7,0.6,0.6,0.2,1.5c-0.3,0.7-0.5,1.4-0.6,2.1
	c0,0.4,0.2,1,0.5,1.2c0.3,0.2,0.9,0,1.3-0.2c0.5-0.3,1-0.8,1.4-1.3c0.3-0.3,0.5-0.4,0.9-0.1c1.2,0.9,2.4,1.8,3.6,2.7
	c2.6,1.8,5.3,3.4,8.2,4.7c1.1,0.5,2.3,1,3.4,1.5c0.5,0.2,0.6,0.4,0.4,1c-0.2,0.6-0.3,1.2-0.3,1.8c0,0.9,0.7,1.3,1.4,0.8
	c0.7-0.4,1.3-1,1.8-1.6c0.3-0.4,0.6-0.5,1.1-0.4c1.8,0.4,3.6,0.8,5.3,1.2c0.3,0.1,0.5,0.1,0.6-0.3c0.6-2,0.5-3.5-1.8-4.4
	c-1.4-0.5-2.8-0.9-4.2-1.3c-3.6-1-7.1-2.2-10.4-4c-3.6-2-6.7-4.6-9.6-7.5C22.8,40.4,21.6,39.3,20.8,38.5 M15.4,38.1
	c-0.9,0.7-1.8,1.4-2.7,2.1c0,0,0,0-0.1,0c0.2-0.3,0.4-0.7,0.6-1c1.9-2.7,5.9-3.5,8.7-1c1.7,1.6,3.3,3.2,5,4.8
	c4.7,4.5,10.3,7.3,16.5,8.9c1.7,0.5,3.4,1,5.1,1.6c2.5,0.8,4,4.2,3.1,7c-0.2,0.6-0.5,1.2-0.8,1.7c-0.1,0-0.1,0-0.2-0.1
	c0.2-1,0.3-2,0.5-3c-0.1,0-0.1,0-0.2,0c-0.3,0.6-0.5,1.2-0.8,1.7c-0.9,1.5-2.3,2.2-3.9,2.5c-2.3,0.4-4.6,0-6.8-0.6
	c-5.2-1.4-10-3.7-14.5-6.8c-3-2-5.8-4.3-8.2-7c-1-1.2-1.9-2.4-2.5-3.9c-0.9-2.3-0.6-4.5,1.1-6.4c0.1-0.1,0.2-0.2,0.2-0.3
	C15.5,38.3,15.5,38.2,15.4,38.1"/>
<path class="st1" d="M33.7,28.7c-0.8,1.3-1.6,2.4-2.8,3.4c-0.4,0.3-0.9,0.6-1.4,0.8c-1.3,0.5-2.3-0.1-2.5-1.5
	c-0.1-0.7-0.1-1.4,0.1-2c0.6-2.7,1.9-4.9,3.9-6.8c0.4-0.4,0.9-0.7,1.4-1c1.5-0.8,2.7,0,2.9,1.7c0.1,1.2-0.2,2.3-0.7,3.5
	C34.3,27.4,34,28,33.7,28.7"/>
<path class="st1" d="M51.2,38.7c0.9-1.4,1.8-2.7,3.1-3.6c0.8-0.6,1.7-1,2.7-0.5c1,0.6,1.1,1.6,0.9,2.6c-0.5,3.3-2.1,6.1-4.7,8.2
	c-0.8,0.6-1.7,1-2.7,0.5c-1-0.6-1-1.6-0.9-2.6C49.7,41.7,50.4,40.2,51.2,38.7"/>
<path class="st1" d="M42.5,41.8c-0.6,0.1-1,0.1-1.5,0.2c-0.4,0-0.8,0-0.8-0.5c0-0.5,0.3-0.6,0.7-0.7c0.9-0.1,1.9-0.3,2.8-0.3
	c0.3,0,0.7,0.1,0.7,0.3c0.1,0.2-0.1,0.6-0.2,0.8c-0.3,0.6-0.7,1.1-1,1.6c-0.1,0.2-0.1,0.5,0,0.6c0.1,0.1,0.4,0.1,0.6,0.1
	c0.9-0.3,1.4-1,1.7-1.8c0.9-2.5,0.2-5-2-6.8c-1.5-1.3-3.2-2-5.1-2.1c-2-0.1-3.6,0.8-4.9,2.3c-0.5,0.6-0.8,1.4-0.6,2.2
	c0,0.2,0.2,0.4,0.4,0.5c0.1,0,0.4-0.1,0.5-0.3c0.3-0.5,0.5-1.1,0.9-1.6c0.2-0.3,0.4-0.6,0.7-0.6c0.2,0,0.5,0.3,0.6,0.5
	c0.4,0.8,0.8,1.7,1.1,2.6c0.2,0.4,0.2,0.8-0.2,1c-0.4,0.2-0.7-0.1-0.9-0.5c-0.2-0.4-0.4-0.9-0.6-1.4c-0.3,0.4-0.5,0.7-0.8,1
	c-1,1-2.2,0.8-2.7-0.5c-0.6-1.5,0-2.8,0.9-3.9c2.1-2.4,5.1-3.1,8.2-2c1.9,0.7,3.5,1.8,4.7,3.4c1.7,2.3,1.8,5.6,0.3,7.9
	c-0.5,0.8-1.3,1.3-2.2,1.5c-1.4,0.2-2.2-0.8-1.8-2.1C42.1,42.6,42.3,42.3,42.5,41.8"/>
<path class="st1" d="M47.4,36.2c-2.2-3.4-5.3-5.2-9.4-5.3C40.6,29,47,32.7,47.4,36.2"/>
<path class="st1" d="M13.9,15.7c0.2,0.1,0.4,0.2,0.5,0.4c1.4,1.3,1.8,3.4,0.9,5.2c-0.7,1.5-1.7,2.7-3,3.6c-0.1,0.1-0.2,0.1-0.3,0.2
	c-1.3,0.9-1.3,1.3-0.3,2.5c0.1,0.1,0.2,0.2,0.3,0.5c-0.9-0.1-1.4-0.5-1.8-1.2c-0.3-0.6-0.2-1.3,0.2-1.8c0.4-0.4,0.8-0.8,1.2-1.2
	c0.8-0.9,1.6-1.7,2.3-2.7c0.9-1.3,0.9-2.7,0.4-4.1c-0.2-0.4-0.4-0.9-0.6-1.3C13.8,15.8,13.8,15.8,13.9,15.7"/>
<path class="st1" d="M62.1,56.9c0.3,0.1,0.7,0.1,1,0.2c0.8,0.1,1.1-0.2,1.3-0.9c0.1-0.4,0.1-0.7,0.1-1.1c0.2-1.8,0.8-3.4,1.8-4.8
	c1.1-1.4,3.2-2,4.8-1.4c0.2,0.1,0.3,0.2,0.6,0.3c-0.3,0.1-0.4,0.1-0.6,0.1c-0.5,0.1-1,0.1-1.5,0.2c-1.8,0.3-2.7,1.7-3.3,3.3
	c-0.3,0.9-0.5,1.8-0.7,2.7c-0.1,0.4-0.2,0.8-0.3,1.2c-0.2,0.6-0.7,1.1-1.4,1.2C63.1,57.9,62.5,57.6,62.1,56.9"/>
</svg>
