<svg id="Layer_1" data-name="Layer 1" xmlns="http://www.w3.org/2000/svg" viewBox="0 0 185.29 264.63"><defs><style>.cls-1{fill:none;stroke:#2ab29f;stroke-miterlimit:10;stroke-width:8px;}.cls-2{fill:#2ab29f;}</style></defs><title>Untitled-1</title><path class="cls-1" d="M179.68,4.42S87.47-6.25,4,80.17L179.68,255V4.42Z" transform="translate(1.61 0)"/><path class="cls-1" d="M179.68,47.92s-78.13-6-146.14,61.64" transform="translate(1.61 0)"/><line class="cls-1" x1="100.76" y1="111.85" x2="76.33" y2="102.09"/><circle class="cls-1" cx="146.52" cy="99.1" r="16.83"/><circle class="cls-1" cx="120.17" cy="146.53" r="16.83"/><line class="cls-1" x1="163.57" y1="138.2" x2="154.02" y2="162.71"/><path class="cls-1" d="M104.86,82.27" transform="translate(1.61 0)"/><path class="cls-2" d="M107.36,87.79c7.66,0,7.67-11.91,0-11.91s-7.67,11.91,0,11.91h0Z" transform="translate(1.61 0)"/><path class="cls-2" d="M84.61,137.79c7.66,0,7.67-11.91,0-11.91s-7.67,11.91,0,11.91h0Z" transform="translate(1.61 0)"/><path class="cls-2" d="M151.36,196.29c7.66,0,7.67-11.91,0-11.91s-7.67,11.91,0,11.91h0Z" transform="translate(1.61 0)"/></svg>