<?xml version="1.0" encoding="utf-8"?>
<!-- Generator: Adobe Illustrator 19.0.0, SVG Export Plug-In . SVG Version: 6.00 Build 0)  -->
<svg version="1.1" id="Layer_1" xmlns="http://www.w3.org/2000/svg" xmlns:xlink="http://www.w3.org/1999/xlink" x="0px" y="0px"
	 viewBox="0 0 93.1 103.8" style="enable-background:new 0 0 93.1 103.8;" xml:space="preserve">
<style type="text/css">
	.st0{fill:#FFFFFF;}
	.st1{fill:#BBE0DE;}
	.st2{fill:#BADFDD;}
</style>
<path class="st0" d="M0,48.6C31,67,62,85.3,93.1,103.8C84.3,69.1,75.6,34.6,66.8,0c-15.3,3.4-29,10-41.4,19.5
	C15,27.5,6.5,37.2,0,48.6"/>
<path class="st1" d="M64.1,4.1C39.2,11.4,19,25.2,4.7,47.3c4,2.4,8,4.7,11.9,7c12.1-19.2,29.3-31.3,50.8-37.5
	C66.3,12.6,65.2,8.5,64.1,4.1 M68.3,20.2c-20.7,6-37,17.8-48.7,35.9C42.4,69.6,64.9,83,87.7,96.5C81.2,71,74.8,45.7,68.3,20.2
	 M0,48.6c6.5-11.5,15-21.1,25.4-29.1C37.8,10,51.5,3.4,66.8,0c8.8,34.6,17.5,69.1,26.3,103.8C62,85.3,31,67,0,48.6"/>
<path class="st0" d="M69.7,39.2c-1.3-0.8-2.8-0.4-3.6,0.9c-0.8,1.3-0.4,2.8,0.8,3.6c1.2,0.8,2.9,0.4,3.6-0.9
	C71.4,41.6,71,39.9,69.7,39.2 M73,73c-0.8,1.2-0.4,2.9,0.9,3.6c1.2,0.8,2.9,0.4,3.6-0.9c0.8-1.2,0.4-2.8-0.9-3.6
	C75.4,71.4,73.8,71.8,73,73 M47.8,36.7c-1.3-0.8-2.8-0.4-3.6,0.9c-0.7,1.2-0.3,2.9,0.9,3.6c1.2,0.7,2.9,0.3,3.6-0.9
	C49.5,39,49.1,37.4,47.8,36.7 M57.4,30.8c-0.6,3.8-1.2,7.4-1.8,11.2c1.1,0.2,2.2,0.4,3.3,0.5c0.6-3.8,1.2-7.5,1.8-11.2
	c-0.8-0.1-1.4-0.2-2.1-0.4C58.3,30.9,57.9,30.9,57.4,30.8 M65.1,71.6c-3.8-0.6-7.5-1.2-11.2-1.8c-0.2,1.2-0.4,2.2-0.5,3.3
	c3.8,0.6,7.5,1.2,11.2,1.8C64.8,73.8,64.9,72.8,65.1,71.6 M72.8,61c2.2-3.8,1-8.6-2.8-10.8c-3.7-2.2-8.6-1-10.8,2.7
	c-2.2,3.8-1,8.7,2.8,10.9C65.8,66,70.6,64.8,72.8,61 M46.8,49.7c-3.8-2.2-8.6-1-10.8,2.8c-2.2,3.8-1,8.6,2.8,10.8
	c3.8,2.2,8.7,1,10.9-2.8C51.9,56.7,50.6,51.9,46.8,49.7 M68.3,20.2C74.8,45.7,81.2,71,87.7,96.5C64.9,83,42.4,69.6,19.6,56.2
	C31.3,38,47.6,26.3,68.3,20.2"/>
<path class="st0" d="M64.1,4.1c1.1,4.3,2.2,8.5,3.3,12.7c-21.5,6.2-38.7,18.4-50.8,37.5c-3.9-2.3-7.8-4.6-11.9-7
	C19,25.2,39.2,11.4,64.1,4.1"/>
<path class="st1" d="M45.1,52.6c-2.2-1.3-4.9-0.6-6.2,1.6c-1.2,2.1-0.5,4.9,1.6,6.2c2.1,1.3,4.9,0.6,6.2-1.6
	C48,56.7,47.3,53.9,45.1,52.6 M46.8,49.7c3.8,2.2,5.1,7,2.9,10.8c-2.2,3.8-7.1,5.1-10.9,2.8c-3.7-2.2-5-7.1-2.8-10.8
	C38.3,48.7,43.1,47.5,46.8,49.7"/>
<path class="st2" d="M69.9,59.3c1.3-2.2,0.6-5-1.6-6.2c-2.1-1.2-4.9-0.5-6.2,1.6c-1.3,2.2-0.6,4.9,1.5,6.2
	C65.8,62.2,68.6,61.5,69.9,59.3 M72.8,61c-2.2,3.8-7,5-10.8,2.8c-3.8-2.2-5-7.1-2.8-10.9c2.2-3.7,7.1-5,10.8-2.7
	C73.8,52.4,75,57.3,72.8,61"/>
<path class="st1" d="M65.1,71.6c-0.2,1.1-0.4,2.2-0.5,3.3c-3.7-0.6-7.4-1.2-11.2-1.8c0.2-1.1,0.4-2.2,0.5-3.3
	C57.7,70.4,61.3,71,65.1,71.6"/>
<path class="st1" d="M57.4,30.8c0.5,0.1,0.9,0.1,1.3,0.2c0.6,0.1,1.3,0.2,2,0.4c-0.6,3.7-1.2,7.4-1.8,11.2c-1.1-0.2-2.2-0.4-3.3-0.5
	C56.2,38.3,56.8,34.6,57.4,30.8"/>
<path class="st2" d="M47.8,36.7c1.3,0.7,1.7,2.3,0.9,3.6c-0.7,1.2-2.4,1.7-3.6,0.9c-1.2-0.7-1.6-2.4-0.9-3.6
	C45,36.3,46.5,35.9,47.8,36.7"/>
<path class="st2" d="M73,73c0.8-1.2,2.4-1.6,3.6-0.9c1.2,0.8,1.6,2.4,0.9,3.6c-0.8,1.2-2.4,1.6-3.6,0.9C72.6,75.9,72.3,74.3,73,73"
	/>
<path class="st2" d="M69.7,39.2c1.2,0.8,1.6,2.4,0.9,3.6c-0.8,1.2-2.4,1.6-3.6,0.9c-1.2-0.8-1.6-2.4-0.8-3.6
	C66.9,38.8,68.5,38.4,69.7,39.2"/>
<path class="st0" d="M45.1,52.6c2.2,1.3,2.9,4,1.6,6.2c-1.3,2.1-4.1,2.9-6.2,1.6c-2.1-1.3-2.8-4-1.6-6.2
	C40.2,52.1,43,51.4,45.1,52.6"/>
<path class="st0" d="M69.9,59.3c-1.3,2.2-4,2.9-6.2,1.6c-2.2-1.3-2.8-4.1-1.5-6.2c1.3-2.1,4-2.8,6.2-1.6
	C70.4,54.4,71.1,57.2,69.9,59.3"/>
</svg>
